<svg xmlns="http://www.w3.org/2000/svg" width="156" height="156" viewBox="0 0 156 156" fill="none">
  <rect width="156" height="156" rx="78" fill="white"/>
  <rect x="0.5" y="0.5" width="155" height="155" rx="77.5" stroke="black" stroke-opacity="0.1"/>
  <path d="M34 101.002L35.3386 100.667V86.3893L34 86.0546V85.72H40.0236C42.2843 85.72 43.9427 86.0844 44.9987 86.8131C46.0695 87.5271 46.605 88.4641 46.605 89.6242C46.605 90.4273 46.3744 91.0743 45.9134 91.5651C45.4523 92.0559 44.8648 92.4203 44.1509 92.6583C43.3924 92.926 42.5744 93.0673 41.6968 93.0822V93.1937C42.7826 93.2383 43.727 93.4019 44.5302 93.6845C45.3482 93.9522 46.0249 94.3687 46.5603 94.9339C47.1107 95.499 47.3858 96.2204 47.3858 97.0979C47.3858 98.4216 46.8429 99.4627 45.7572 100.221C44.6715 100.965 42.909 101.337 40.4698 101.337H34V101.002ZM40.0236 92.8591C40.5144 92.8591 40.9681 92.7252 41.3845 92.4575C41.8158 92.1749 42.1579 91.7882 42.4107 91.2974C42.6785 90.7917 42.8123 90.234 42.8123 89.6242C42.8123 88.9697 42.6785 88.3897 42.4107 87.884C42.1579 87.3783 41.8158 86.9842 41.3845 86.7016C40.9681 86.419 40.5144 86.2777 40.0236 86.2777H39.0197V92.8591H40.0236ZM40.4698 100.779C41.3919 100.779 42.143 100.452 42.7231 99.7974C43.3031 99.143 43.5932 98.2431 43.5932 97.0979C43.5932 95.9527 43.3031 95.0528 42.7231 94.3984C42.143 93.744 41.3919 93.4168 40.4698 93.4168H39.0197V100.779H40.4698Z" fill="#1A1B6C"/>
  <path d="M47.825 101.002L49.1636 100.667V86.3893L47.825 86.0546V85.72H50.7253C52.0639 85.72 52.7332 86.3893 52.7332 87.7278V100.667L54.0717 101.002V101.337H47.825V101.002Z" fill="#1A1B6C"/>
  <path d="M60.2034 101.671C58.3591 101.671 56.909 101.151 55.853 100.11C54.8119 99.0537 54.2913 97.6036 54.2913 95.7593C54.2913 93.9151 54.8119 92.4724 55.853 91.4312C56.909 90.3753 58.3591 89.8473 60.2034 89.8473C62.0477 89.8473 63.4904 90.3753 64.5315 91.4312C65.5875 92.4724 66.1155 93.9151 66.1155 95.7593C66.1155 97.6036 65.5875 99.0537 64.5315 100.11C63.4904 101.151 62.0477 101.671 60.2034 101.671ZM60.2034 101.225C60.7983 101.225 61.2966 100.809 61.6982 99.9759C62.1146 99.143 62.3228 97.7374 62.3228 95.7593C62.3228 93.7812 62.1146 92.3757 61.6982 91.5428C61.2966 90.7099 60.7983 90.2935 60.2034 90.2935C59.6085 90.2935 59.1028 90.7099 58.6863 91.5428C58.2848 92.3757 58.084 93.7812 58.084 95.7593C58.084 97.7374 58.2848 99.143 58.6863 99.9759C59.1028 100.809 59.6085 101.225 60.2034 101.225Z" fill="#1A1B6C"/>
  <path d="M72.0354 101.671C71.1132 101.671 70.2878 101.471 69.559 101.069C69.202 100.876 68.912 100.667 68.6889 100.444C68.451 100.772 68.1907 101.024 67.9081 101.203C67.7742 101.292 67.6255 101.374 67.4619 101.448H66.9041V97.6556H67.7965C67.9899 98.2803 68.2725 98.8604 68.6443 99.3958C69.4326 100.541 70.4142 101.114 71.5892 101.114C72.2139 101.114 72.6824 100.965 72.9947 100.667C73.3219 100.355 73.4855 99.9089 73.4855 99.3289C73.4855 98.8381 73.2624 98.429 72.8162 98.1018C72.3849 97.7598 71.7007 97.3433 70.7637 96.8525C69.9606 96.4509 69.3062 96.094 68.8005 95.7816C68.3097 95.4544 67.8858 95.0528 67.5288 94.5769C67.1867 94.0861 67.0157 93.5135 67.0157 92.8591C67.0157 91.9667 67.395 91.2453 68.1535 90.695C68.9269 90.1298 70.1093 89.8473 71.7007 89.8473C72.489 89.8473 73.2178 90.0555 73.8871 90.4719C74.2143 90.6653 74.4969 90.8661 74.7348 91.0743C74.9282 90.8066 75.1885 90.5537 75.5157 90.3158C75.7685 90.167 75.9173 90.0852 75.9619 90.0704H76.5196V93.863H75.6272C75.4041 93.2235 75.129 92.6508 74.8018 92.1452C74.0581 90.9851 73.1732 90.405 72.1469 90.405C71.7453 90.405 71.4033 90.5537 71.1207 90.8512C70.8381 91.1487 70.6968 91.5205 70.6968 91.9667C70.6968 92.5319 70.9348 93.0078 71.4107 93.3945C71.8866 93.7663 72.608 94.1976 73.5747 94.6885C74.363 95.09 74.9877 95.447 75.4488 95.7593C75.9247 96.0568 76.3263 96.4286 76.6535 96.8748C76.9956 97.321 77.1666 97.8416 77.1666 98.4365C77.1666 100.593 75.4562 101.671 72.0354 101.671Z" fill="#1A1B6C"/>
  <path d="M82.968 101.671C82.0458 101.671 81.2204 101.471 80.4916 101.069C80.1347 100.876 79.8446 100.667 79.6215 100.444C79.3836 100.772 79.1233 101.024 78.8407 101.203C78.7068 101.292 78.5581 101.374 78.3945 101.448H77.8368V97.6556H78.7291C78.9225 98.2803 79.2051 98.8604 79.5769 99.3958C80.3652 100.541 81.3468 101.114 82.5218 101.114C83.1465 101.114 83.615 100.965 83.9273 100.667C84.2545 100.355 84.4181 99.9089 84.4181 99.3289C84.4181 98.8381 84.195 98.429 83.7488 98.1018C83.3175 97.7598 82.6333 97.3433 81.6963 96.8525C80.8932 96.4509 80.2388 96.094 79.7331 95.7816C79.2423 95.4544 78.8184 95.0528 78.4614 94.5769C78.1193 94.0861 77.9483 93.5135 77.9483 92.8591C77.9483 91.9667 78.3276 91.2453 79.0861 90.695C79.8595 90.1298 81.0419 89.8473 82.6333 89.8473C83.4216 89.8473 84.1504 90.0555 84.8197 90.4719C85.1469 90.6653 85.4295 90.8661 85.6674 91.0743C85.8608 90.8066 86.1211 90.5537 86.4483 90.3158C86.7011 90.167 86.8499 90.0852 86.8945 90.0704H87.4522V93.863H86.5598C86.3367 93.2235 86.0616 92.6508 85.7344 92.1452C84.9907 90.9851 84.1058 90.405 83.0795 90.405C82.678 90.405 82.3359 90.5537 82.0533 90.8512C81.7707 91.1487 81.6294 91.5205 81.6294 91.9667C81.6294 92.5319 81.8674 93.0078 82.3433 93.3945C82.8193 93.7663 83.5406 94.1976 84.5074 94.6885C85.2956 95.09 85.9203 95.447 86.3814 95.7593C86.8573 96.0568 87.2589 96.4286 87.5861 96.8748C87.9282 97.321 88.0992 97.8416 88.0992 98.4365C88.0992 100.593 86.3888 101.671 82.968 101.671Z" fill="#1A1B6C"/>
  <path d="M94.5699 101.671C92.7256 101.671 91.2755 101.151 90.2195 100.11C89.1784 99.0537 88.6578 97.6036 88.6578 95.7593C88.6578 93.9151 89.1784 92.4724 90.2195 91.4312C91.2755 90.3753 92.7256 89.8473 94.5699 89.8473C96.4142 89.8473 97.8568 90.3753 98.898 91.4312C99.9539 92.4724 100.482 93.9151 100.482 95.7593C100.482 97.6036 99.9539 99.0537 98.898 100.11C97.8568 101.151 96.4142 101.671 94.5699 101.671ZM94.5699 101.225C95.1648 101.225 95.6631 100.809 96.0646 99.9759C96.4811 99.143 96.6893 97.7374 96.6893 95.7593C96.6893 93.7812 96.4811 92.3757 96.0646 91.5428C95.6631 90.7099 95.1648 90.2935 94.5699 90.2935C93.975 90.2935 93.4693 90.7099 93.0528 91.5428C92.6512 92.3757 92.4505 93.7812 92.4505 95.7593C92.4505 97.7374 92.6512 99.143 93.0528 99.9759C93.4693 100.809 93.975 101.225 94.5699 101.225Z" fill="#1A1B6C"/>
  <path d="M101.159 101.002L102.498 100.667V90.8512L101.159 90.5166V90.1819H103.167C104.044 90.1819 104.736 90.4645 105.242 91.0297C105.435 91.2528 105.599 91.5279 105.733 91.8551C105.956 91.4387 106.194 91.104 106.446 90.8512C107.116 90.1819 107.882 89.8473 108.744 89.8473C109.607 89.8473 110.366 90.0406 111.02 90.4273C111.674 90.7991 112.18 91.3123 112.537 91.9667C112.76 91.5354 112.998 91.1858 113.251 90.9181C113.935 90.2042 114.701 89.8473 115.549 89.8473C116.337 89.8473 117.044 90.0109 117.668 90.3381C118.308 90.6653 118.799 91.1115 119.141 91.6767C119.498 92.2418 119.676 92.8591 119.676 93.5284V100.667L121.015 101.002V101.337H118.114C116.776 101.337 116.107 100.667 116.107 99.3289V93.5284C116.107 92.5616 115.958 91.8403 115.66 91.3643C115.363 90.8735 115.028 90.6281 114.656 90.6281C114.225 90.6281 113.786 90.9256 113.34 91.5205C113.162 91.8031 113.006 92.1005 112.872 92.4129V100.667L114.21 101.002V101.337H107.964V101.002L109.302 100.667V93.5284C109.302 92.5616 109.153 91.8403 108.856 91.3643C108.558 90.8735 108.224 90.6281 107.852 90.6281C107.421 90.6281 106.982 90.9256 106.536 91.5205C106.357 91.8031 106.201 92.1005 106.067 92.4129V100.667L107.406 101.002V101.337H101.159V101.002Z" fill="#1A1B6C"/>
  <path fill-rule="evenodd" clip-rule="evenodd" d="M76.9934 77.6889C76.8495 77.7173 76.7002 77.7267 76.549 77.7152C71.8757 77.3606 67.4525 74.7793 64.9323 70.4142C62.412 66.049 62.3882 60.9276 64.4179 56.7032C64.7125 56.0898 65.3513 55.7211 66.0298 55.7725C67.7713 55.9047 69.4781 56.346 71.0646 57.0737C72.2617 54.7395 74.0329 52.7482 76.1917 51.2862C76.7551 50.9046 77.492 50.9046 78.0554 51.2862C80.1849 52.7283 81.9372 54.6855 83.1335 56.9788C84.6598 56.3076 86.2926 55.8988 87.957 55.7725C88.6355 55.7211 89.2742 56.0898 89.5689 56.7032C91.5986 60.9276 91.5747 66.0491 89.0545 70.4142C86.5343 74.7793 82.111 77.3606 77.4378 77.7152C77.2866 77.7267 77.1373 77.7173 76.9934 77.6889ZM80.4173 75.0428C83.2185 74.0901 85.6962 72.1567 87.2903 69.3956C89.4122 65.7204 89.4813 61.4227 87.8456 57.8268C86.5024 57.9571 85.1878 58.3006 83.9544 58.843C84.5561 60.498 84.8843 62.2842 84.8843 64.1471C84.8843 68.3929 83.1796 72.2405 80.4173 75.0428ZM81.3299 57.9261C80.3305 56.0075 78.8827 54.3588 77.1236 53.1183C75.3267 54.3853 73.8547 56.0783 72.8536 58.0497C74.447 59.0687 75.8624 60.409 76.9934 62.0422C78.1707 60.3421 79.6563 58.9593 81.3299 57.9261ZM78.1476 64.018C79.1712 62.272 80.5499 60.8611 82.1398 59.8247C82.5986 61.1817 82.8472 62.6354 82.8472 64.1471C82.8472 67.6371 81.5223 70.818 79.3442 73.2141C79.9335 70.1874 79.5771 66.9637 78.1476 64.018ZM75.8392 64.018C74.8616 62.3505 73.5602 60.9887 72.0602 59.9668C71.6315 61.283 71.4 62.6881 71.4 64.1471C71.4 67.4581 72.5924 70.491 74.5746 72.8393C74.0844 69.9224 74.4686 66.8425 75.8392 64.018ZM76.9934 74.2097C77.7581 71.7778 77.7896 69.1248 76.9934 66.6098C76.1972 69.1249 76.2287 71.7778 76.9934 74.2097ZM66.6965 69.3956C68.363 72.2822 70.9952 74.264 73.9531 75.1665C71.1184 72.3543 69.3628 68.4557 69.3628 64.1471C69.3628 62.3221 69.6778 60.5706 70.2564 58.9441C68.9587 58.3432 67.566 57.965 66.1412 57.8268C64.5055 61.4227 64.5746 65.7204 66.6965 69.3956Z" fill="#EF898B"/>
</svg>