<svg xmlns="http://www.w3.org/2000/svg" width="24" height="24" viewBox="0 0 24 24" fill="none">
    <g clip-path="url(#clip0_732_1143)">
        <path d="M7.5 6V1M17.5 6V1M21.5 17V20.5C21.5 21.0523 21.0523 21.5 20.5 21.5H4.5C3.94772 21.5 3.5 21.0523 3.5 20.5V18.5M21.363 8.5H3.352M18.55 18.25V18.25C18.4569 18.4051 18.2893 18.5 18.1085 18.5H0.703637C0.591172 18.5 0.5 18.4088 0.5 18.2964V18.2964C0.5 18.2658 0.506859 18.2357 0.520071 18.2082L0.743 17.744C2.55784 13.9628 3.50004 9.82218 3.5 5.628V4.5C3.5 3.94772 3.94772 3.5 4.5 3.5H20.5C21.0523 3.5 21.5 3.94771 21.5 4.5V5.729C21.5 9.89102 20.5722 14.0007 18.784 17.759L18.55 18.25Z" stroke="white" stroke-width="1.5"/>
    </g>
    <defs>
        <clipPath id="clip0_732_1143">
            <rect width="24" height="24" fill="white"/>
        </clipPath>
    </defs>
</svg>