<svg xmlns="http://www.w3.org/2000/svg" width="88" height="28" viewBox="0 0 88 28" fill="none">
    <g clip-path="url(#clip0_1023_570)">
        <path fill-rule="evenodd" clip-rule="evenodd" d="M47.3142 7.32823C47.5259 7.54966 49.4308 12.825 49.63 13.4762C49.8284 14.174 50.1085 14.8434 50.4642 15.4691C51.124 15.6254 51.1863 14.9351 51.3855 14.388C52.4687 11.4312 54.1122 7.11982 54.9339 4.21514C55.5066 2.80839 55.5564 2.43065 54.523 2.43065C53.4896 2.43065 53.6017 3.13403 53.1908 4.04581C52.8298 5.7782 51.4353 9.43835 50.9248 11.1186C50.9248 11.3401 50.9248 11.3401 50.6634 11.3401C49.8043 8.83918 48.8083 5.7782 47.8371 3.30336C47.5757 2.82142 47.115 2.71721 46.8037 3.79833C46.2808 5.51769 45.5587 7.56268 44.9984 9.22994C44.9984 9.22994 44.3261 11.3401 44.2763 11.4443C43.9202 10.8453 43.6595 10.1899 43.5044 9.50348C42.7324 7.51058 42.0601 5.36138 41.4002 3.36848C41.2384 2.99075 41.2384 2.76931 40.8773 2.54788C40.5154 2.40757 40.1241 2.37158 39.7443 2.44368C38.7234 2.61301 39.3832 3.47269 39.5949 4.11094C40.84 7.61479 42.222 11.822 43.604 15.1565C43.6363 15.2392 43.6889 15.3114 43.7564 15.366C43.824 15.4206 43.9041 15.4556 43.9887 15.4675C44.0732 15.4793 44.1593 15.4677 44.2382 15.4337C44.3171 15.3997 44.3861 15.3445 44.4381 15.2738C44.6373 14.87 47.1648 7.32823 47.3142 7.32823Z" fill="white"/>
        <path fill-rule="evenodd" clip-rule="evenodd" d="M0.202962 2.65194C0.151496 2.86892 0.168978 3.09754 0.252764 3.30321C0.464422 4.21499 -0.158102 14.6093 0.00375449 15.0261C0.507718 15.2632 1.07275 15.3182 1.60987 15.1824C1.85888 14.9089 1.75927 14.6484 1.75927 14.2185C1.75927 12.382 1.90868 10.6105 1.90868 8.7218C1.97093 8.01843 2.02073 7.53648 2.02073 7.10664C2.02073 6.6768 2.02073 6.7289 2.12034 6.6247C2.21994 6.5205 3.85095 9.4903 4.01281 9.81594C4.32407 10.4542 4.93414 11.4311 5.34501 12.1866C5.96754 13.3719 6.2788 12.5643 6.4282 12.2908C6.78927 11.8088 9.57817 6.68983 9.77738 6.58562C9.96414 6.79403 9.96414 11.913 9.96414 12.2908C9.96414 15.0913 9.65288 15.3648 11.3461 15.2476C11.8691 15.2476 11.9189 14.8177 11.8691 14.3358C11.8691 13.424 11.8691 12.395 11.8691 11.4832C11.7321 9.16467 11.6325 6.5205 11.6325 4.21499C11.6325 3.94146 11.7321 2.91245 11.7321 2.75614C11.5797 2.57645 11.3732 2.45656 11.1468 2.41629C10.9204 2.37603 10.6877 2.4178 10.4871 2.53471C10.126 2.75614 10.0264 3.23808 9.76493 3.56372C8.71909 5.50451 7.31219 7.70581 6.3286 9.5424C5.96754 10.1937 5.96754 9.97224 5.65627 9.5424C4.98395 8.51339 4.11241 6.74193 3.50234 5.71292L2.25729 3.56372C2.08423 3.19023 1.86212 2.84387 1.59742 2.53471C1.2488 2.2742 0.564026 2.48261 0.202962 2.65194Z" fill="white"/>
        <path fill-rule="evenodd" clip-rule="evenodd" d="M65.9022 8.68286C66.3429 8.30669 66.8656 8.05038 67.4239 7.93675C67.9822 7.82312 68.5587 7.8557 69.102 8.03159C70.7455 8.78706 70.9571 11.327 70.235 12.5644C69.9274 13.0467 69.4844 13.4172 68.967 13.6248C68.4496 13.8325 67.8834 13.867 67.3465 13.7237C66.8263 13.6163 66.334 13.3943 65.9022 13.0724V8.68286ZM65.9022 6.84627C65.8246 5.42766 65.8246 4.00556 65.9022 2.58694C65.9022 2.0008 65.703 1.89659 65.1801 2.105C63.935 2.65207 63.935 2.43064 64.1093 3.61596C64.2089 4.21513 64.1093 11.1577 64.1093 12.1346C64.1093 14.0624 63.8479 14.5052 66.5247 15.3128C67.287 15.4801 68.0736 15.4844 68.8375 15.3254C69.6013 15.1665 70.3265 14.8476 70.9696 14.388C73.5966 12.1346 72.8745 5.77818 68.0811 6.26012C67.6632 6.28378 67.2473 6.33599 66.836 6.41643C66.6741 6.46853 66.0641 6.84627 65.9894 6.84627H65.9022Z" fill="white"/>
        <path fill-rule="evenodd" clip-rule="evenodd" d="M29.5957 15.1435C29.7904 14.4642 29.8455 13.7495 29.7575 13.0464C29.7066 12.3092 29.7066 11.5692 29.7575 10.8321C29.9069 10.8321 30.0688 11.1056 30.38 11.4312C30.6913 11.7569 33.2561 14.5573 33.667 14.87C33.8103 15.0095 33.9831 15.1118 34.1713 15.1683C34.3595 15.2249 34.5579 15.2343 34.7502 15.1956C35.1112 15.1956 35.684 15.1956 35.8832 14.9351C35.8832 14.5573 35.161 13.9582 34.8498 13.6325C34.5385 13.3069 34.1401 12.8901 33.779 12.4472C32.9871 11.7181 32.2465 10.9302 31.5628 10.0896C31.5628 9.97239 34.3891 7.48452 34.912 7.01561C35.1112 6.79417 35.3229 6.74207 35.2731 6.41644C34.6323 6.20962 33.9467 6.20962 33.3059 6.41644C33.0569 6.53366 31.3512 8.14882 30.8905 8.57866C30.7411 8.73497 29.8571 9.71188 29.7575 9.65977C29.6081 9.16481 29.7575 2.43064 29.6579 2.05291C29.5583 1.67517 27.8028 2.27434 27.8526 2.92561C27.9502 3.38321 28.0003 3.85049 28.002 4.31934V13.6325C28.002 13.9582 27.9024 14.9351 28.1141 15.0914C28.5985 15.2209 29.104 15.2387 29.5957 15.1435Z" fill="white"/>
        <path fill-rule="evenodd" clip-rule="evenodd" d="M16.186 10.7278C16.7587 10.5715 18.6761 11.0534 18.7632 11.5875C18.813 12.1638 18.813 12.7436 18.7632 13.3199C18.4021 13.8018 15.9245 14.7657 15.1028 13.0463C14.992 12.8021 14.9346 12.5351 14.9346 12.2648C14.9346 11.9945 14.992 11.7275 15.1028 11.4833C15.2223 11.2847 15.3806 11.1147 15.5673 10.9845C15.7539 10.8544 15.9648 10.7669 16.186 10.7278ZM18.813 10.0765C18.3292 9.74121 17.7881 9.5068 17.2193 9.38617C16.5106 9.30406 15.7935 9.35702 15.1028 9.54248C14.5212 9.71674 14.0084 10.0816 13.6398 10.5835C13.2713 11.0853 13.0663 11.6977 13.0552 12.3305C13.044 12.9633 13.2272 13.5831 13.5779 14.0988C13.9285 14.6145 14.4281 14.999 15.0032 15.1955C15.988 15.5469 17.0563 15.5469 18.0411 15.1955C18.2527 15.0913 18.6636 14.8178 18.813 14.7657C18.9624 14.7136 19.0247 15.1434 19.2239 15.2476C19.4231 15.3518 20.3569 15.2476 20.6183 14.9871C20.8798 14.7266 20.9296 14.7657 20.7677 14.3879C20.5268 13.8895 20.4398 13.3252 20.5187 12.7728V8.8912C20.5839 8.3416 20.4555 7.78598 20.1577 7.32815C19.1741 5.28315 13.2476 6.09073 13.7208 7.82311C14.1939 9.5555 14.9658 7.22394 17.5804 7.54958C18.9873 7.70589 18.8379 9.11264 18.8379 10.0765H18.813Z" fill="white"/>
        <path fill-rule="evenodd" clip-rule="evenodd" d="M79.7604 9.81661H75.4899C75.5471 9.28178 75.7804 8.78445 76.1497 8.40986C76.5529 8.03997 77.0595 7.81612 77.594 7.77161C77.8724 7.74755 78.1526 7.78244 78.4179 7.8742C78.6832 7.96595 78.928 8.11269 79.1379 8.30566C79.3491 8.48748 79.5158 8.71944 79.6241 8.98224C79.7324 9.24505 79.7791 9.5311 79.7604 9.81661ZM75.3778 11.2103C75.6891 11.054 80.358 11.2103 81.2046 11.2103C82.0513 11.2103 81.6653 8.30566 80.1214 7.12034C79.4907 6.6284 78.7399 6.33311 77.9556 6.26857C77.1713 6.20402 76.3855 6.37285 75.689 6.75557C74.9925 7.13829 74.4137 7.71928 74.0194 8.43147C73.625 9.14366 73.4313 9.95801 73.4604 10.7805C73.4309 11.5793 73.6086 12.3716 73.9746 13.0734C74.3407 13.7751 74.8815 14.3601 75.5397 14.7663C76.9217 15.7432 80.6319 15.6911 81.0926 14.1801C81.6653 12.2393 80.3207 13.3205 79.8475 13.5289C79.4497 13.6995 79.0303 13.8092 78.6025 13.8545C75.8509 14.1801 75.1786 11.6402 75.3778 11.2103Z" fill="white"/>
        <path fill-rule="evenodd" clip-rule="evenodd" d="M56.6904 9.81567C56.7341 9.25934 56.9759 8.74044 57.3678 8.36172C57.7598 7.983 58.2734 7.77206 58.807 7.77067C59.8777 7.65344 61.1228 8.63035 60.9111 9.81567H56.6904ZM56.4788 11.1182C56.7402 11.1182 61.5835 11.1182 62.2558 11.1182C62.9281 11.1182 62.8161 10.6884 62.7663 10.1543C62.7299 9.4311 62.5146 8.73015 62.1414 8.12015C61.7682 7.51015 61.25 7.01201 60.6375 6.67454C60.025 6.33707 59.3392 6.17183 58.6472 6.19501C57.9553 6.2182 57.281 6.429 56.6904 6.80679C56.0263 7.21726 55.4832 7.81131 55.1208 8.52366C54.7584 9.23602 54.5907 10.0391 54.6361 10.8447C54.5833 11.6399 54.7544 12.4339 55.1284 13.1284C55.5024 13.8229 56.0627 14.3875 56.7402 14.7523C58.4957 15.8855 61.9445 15.4036 62.2558 14.1141C62.2558 13.7363 62.5048 12.8115 61.9445 13.033C61.2677 13.4332 60.531 13.7107 59.7657 13.8536C59.3577 13.9106 58.9429 13.8824 58.5454 13.7706C58.1479 13.6588 57.7756 13.4656 57.4499 13.2023C57.0017 12.8245 56.2796 11.6913 56.4788 11.1182Z" fill="white"/>
        <path fill-rule="evenodd" clip-rule="evenodd" d="M84.4427 15.195C84.7539 14.8694 84.7041 14.713 84.7041 14.2311V12.9286C84.7041 11.2092 84.3929 8.35662 86.2978 7.92678C86.7087 7.82258 86.8083 8.18729 87.3312 8.08309C87.6396 7.79364 87.8712 7.42571 88.0035 7.015C88.0035 6.19439 86.7585 6.03809 85.6255 6.57213C85.2644 6.74146 84.9656 7.32761 84.7041 7.37971C84.7041 6.89777 84.8037 6.68936 84.4925 6.25952C84.0934 6.29956 83.7071 6.42834 83.3595 6.63726C82.849 6.89777 82.7494 6.89777 82.849 7.54904C82.9486 8.20032 82.849 12.668 82.849 13.7361C82.8988 15.3643 82.8988 15.3122 84.4427 15.195Z" fill="white"/>
        <path fill-rule="evenodd" clip-rule="evenodd" d="M23.7328 15.1436V15.0394C23.8773 13.7165 23.9148 12.3831 23.8449 11.0536C23.8449 10.0246 24.0939 8.35733 25.1771 8.03169C26.0486 7.70605 26.0984 8.56573 26.6711 8.03169C28.0033 6.57284 26.2105 5.98669 25.1273 6.46863C24.0441 6.95058 24.1935 7.32832 23.8822 7.43252C23.8572 7.22057 23.8572 7.00622 23.8822 6.79427C23.8822 6.52074 23.7702 6.52074 23.6706 6.36443C23.2714 6.36103 22.8791 6.47377 22.5376 6.69007C22.0271 6.89847 21.8653 6.95058 22.0271 7.60185C22.1366 8.60045 22.1699 9.60659 22.1267 10.6107V13.5805C22.2388 15.1957 22.0271 15.3129 23.7328 15.1436Z" fill="white"/>
        <path fill-rule="evenodd" clip-rule="evenodd" d="M46.9532 16.8759C44.8978 17.1411 42.8769 17.6435 40.9271 18.3738C40.3171 18.6473 39.6821 18.8036 39.072 19.0772C37.827 19.5591 36.6566 19.9889 35.424 20.4839C35.0132 20.6402 32.0749 21.552 31.5644 21.6692C29.0743 22.3075 25.3391 23.0629 22.9611 21.9297C21.8281 21.3436 21.7161 23.1672 24.2933 23.8184C25.8005 24.0946 27.3471 24.0234 28.8253 23.61C30.0703 23.3365 31.5644 22.8545 32.7472 22.4768C33.93 22.0991 35.3244 21.6692 36.6068 21.2915C36.9181 21.1743 37.1671 21.0701 37.5282 20.9658L39.4331 20.3667C39.7942 20.2625 40.0556 20.1062 40.3669 19.9889L42.3341 19.507C42.6951 19.4028 42.9566 19.2986 43.2678 19.1814C45.8746 18.5996 48.5334 18.3114 51.1988 18.3217C51.8587 18.3217 52.8423 18.491 53.5146 18.5952C54.7596 18.7515 54.4857 18.0612 53.664 17.6183C51.5274 16.7619 49.2137 16.5059 46.9532 16.8759Z" fill="#64EB81"/>
    </g>
    <defs>
        <clipPath id="clip0_1023_570">
            <rect width="88" height="28" fill="white"/>
        </clipPath>
    </defs>
</svg>