<svg xmlns="http://www.w3.org/2000/svg" width="22" height="22" viewBox="0 0 22 22" fill="none">
    <g clip-path="url(#clip0_696_2854)">
        <path d="M2.35658 0.785645H7.07087C7.48765 0.785645 7.88734 0.951206 8.18204 1.2459C8.47673 1.54061 8.6423 1.9403 8.6423 2.35707V17.2856C8.6423 18.3275 8.2284 19.3268 7.49165 20.0636C6.7549 20.8003 5.75565 21.2142 4.71373 21.2142C4.19783 21.2142 3.68697 21.1125 3.21033 20.9152C2.7337 20.7178 2.30061 20.4283 1.9358 20.0636C1.19906 19.3268 0.785156 18.3275 0.785156 17.2856V2.35707C0.785156 1.9403 0.950717 1.54061 1.24542 1.2459C1.54012 0.951206 1.93981 0.785645 2.35658 0.785645Z" stroke="black" stroke-width="1.8" stroke-linecap="round" stroke-linejoin="round"/>
        <path d="M8.64324 7.85704L14.1432 2.32561C14.4377 2.03293 14.8359 1.86865 15.2511 1.86865C15.6662 1.86865 16.0646 2.03293 16.3589 2.32561L19.6746 5.65704C19.9674 5.95146 20.1316 6.34975 20.1316 6.76489C20.1316 7.18005 19.9674 7.57833 19.6746 7.87275L7.49609 20.067" stroke="black" stroke-width="1.8" stroke-linecap="round" stroke-linejoin="round"/>
        <path d="M14.1415 13.3572H19.6415C20.0582 13.3572 20.458 13.5227 20.7526 13.8174C21.0473 14.1121 21.2129 14.5118 21.2129 14.9286V19.6429C21.2129 20.0596 21.0473 20.4594 20.7526 20.754C20.458 21.0487 20.0582 21.2143 19.6415 21.2143H4.71289" stroke="black" stroke-width="1.8" stroke-linecap="round" stroke-linejoin="round"/>
        <path d="M0.785156 7.07129H8.6423" stroke="black" stroke-width="1.8" stroke-linecap="round" stroke-linejoin="round"/>
        <path d="M0.785156 13.3572H8.6423" stroke="black" stroke-width="1.8" stroke-linecap="round" stroke-linejoin="round"/>
    </g>
    <defs>
        <clipPath id="clip0_696_2854">
            <rect width="22" height="22" fill="white"/>
        </clipPath>
    </defs>
</svg>