<svg xmlns="http://www.w3.org/2000/svg" width="22" height="22" viewBox="0 0 22 22" fill="none">
    <g clip-path="url(#clip0_696_2896)">
        <path d="M9.66411 0.872133C9.56936 0.815532 9.46104 0.785645 9.35066 0.785645C9.24028 0.785645 9.13198 0.815532 9.03722 0.872133C8.95906 0.93406 8.90632 1.0225 8.88899 1.1207C8.87167 1.2189 8.89095 1.32004 8.94319 1.40498C10.8709 4.74313 11.2783 9.28803 8.64542 11.7956C7.63241 10.9443 6.82819 9.87199 6.29461 8.66116C5.32095 9.20192 4.51404 9.99907 3.96146 10.9661C3.40888 11.9331 3.13176 13.033 3.16019 14.1464C3.19995 15.1279 3.43561 16.0915 3.85333 16.9806C4.27105 17.8697 4.86238 18.6661 5.59253 19.3233C6.32267 19.9805 7.17689 20.4849 8.10489 20.8071C9.03292 21.129 10.016 21.2623 10.9962 21.1988C16.0427 21.1988 18.6599 18.0644 18.8323 14.1464C19.0361 9.44475 15.6978 3.66177 9.66411 0.872133Z" stroke="black" stroke-width="1.8" stroke-linecap="round" stroke-linejoin="round"/>
    </g>
    <defs>
        <clipPath id="clip0_696_2896">
            <rect width="22" height="22" fill="white"/>
        </clipPath>
    </defs>
</svg>