<svg xmlns="http://www.w3.org/2000/svg" width="125" height="125" viewBox="0 0 125 125" fill="none">
  <rect width="125" height="125" rx="62.5" fill="white"/>
  <rect x="0.5" y="0.5" width="124" height="124" rx="62" stroke="black" stroke-opacity="0.1"/>
  <path d="M37.1413 52.8325L29 65.5329H36.3272L35.513 73.9999L43.6543 61.2995H36.3272L37.1413 52.8325Z" fill="#2C2C2C"/>
  <path d="M58.0789 62.2585V65.2721H53.7319V69.4H50.3164V57.1626H58.9921V60.1763H53.7319V62.2585H58.0789Z" fill="#2C2C2C"/>
  <path d="M63.7556 57.1626V69.4H60.6141V57.1626H63.7556Z" fill="#2C2C2C"/>
  <path d="M68.9391 59.811C69.4262 59.811 69.9011 59.9206 70.3638 60.1397C70.8386 60.3467 71.2283 60.6146 71.5327 60.9434V60.085H74.6742V69.4H71.5327V67.8475C71.3013 68.3589 70.9482 68.7911 70.4733 69.1443C69.9985 69.4974 69.4262 69.6739 68.7565 69.6739C68.0624 69.6739 67.411 69.4974 66.8021 69.1443C66.1933 68.7911 65.6941 68.2493 65.3044 67.5187C64.927 66.7759 64.7382 65.8444 64.7382 64.7242C64.7382 63.677 64.927 62.7881 65.3044 62.0575C65.6941 61.327 66.2055 60.7729 66.8387 60.3955C67.484 60.0058 68.1842 59.811 68.9391 59.811ZM69.5966 62.8795C69.1461 62.8795 68.7686 63.0621 68.4642 63.4274C68.172 63.7927 68.0259 64.225 68.0259 64.7242C68.0259 65.2234 68.1781 65.6435 68.4825 65.9845C68.7869 66.3254 69.1887 66.4959 69.688 66.4959C69.9558 66.4959 70.2298 66.4289 70.5099 66.295C70.7899 66.1488 71.0274 65.9358 71.2222 65.6557C71.4292 65.3635 71.5327 64.9921 71.5327 64.5415V63.6466C71.2648 63.4274 70.9604 63.2447 70.6195 63.0986C70.2907 62.9525 69.9498 62.8795 69.5966 62.8795Z" fill="#2C2C2C"/>
  <path d="M79.5473 59.811C80.1561 59.811 80.7162 59.9023 81.2276 60.085C81.7512 60.2554 82.1713 60.4929 82.4879 60.7973V63.263C82.1713 63.0682 81.8121 62.8855 81.4103 62.7151C81.0084 62.5324 80.5762 62.4411 80.1135 62.4411C79.8212 62.4411 79.5594 62.502 79.3281 62.6237C79.1089 62.7333 78.9993 62.9099 78.9993 63.1534C78.9993 63.3239 79.0663 63.4517 79.2002 63.537C79.3342 63.6222 79.596 63.7135 79.9856 63.811L80.5518 63.9571C82.1713 64.3711 82.981 65.2417 82.981 66.5689C82.981 67.1778 82.7984 67.7196 82.4331 68.1945C82.08 68.6572 81.6112 69.0225 81.0267 69.2904C80.4544 69.5461 79.8334 69.6739 79.1637 69.6739C78.4696 69.6739 77.8243 69.5765 77.2276 69.3817C76.631 69.1747 76.1196 68.9251 75.6934 68.6328V66.1854C76.1318 66.4533 76.6249 66.6785 77.1728 66.8612C77.733 67.0438 78.2322 67.1351 78.6706 67.1351C79.0237 67.1351 79.2794 67.0925 79.4377 67.0073C79.6081 66.922 79.6934 66.7698 79.6934 66.5507C79.6934 66.3802 79.596 66.2523 79.4011 66.1671C79.2063 66.0697 78.9263 65.9601 78.561 65.8383L77.6295 65.5461C76.9476 65.3391 76.4483 65.0164 76.1318 64.5781C75.8152 64.1275 75.6569 63.5796 75.6569 62.9342C75.6569 62.2889 75.8273 61.7349 76.1683 61.2722C76.5092 60.8095 76.9719 60.4502 77.5564 60.1945C78.153 59.9388 78.8167 59.811 79.5473 59.811Z" fill="#2C2C2C"/>
  <path d="M89.4613 59.811C90.4111 59.811 91.1843 60.1337 91.781 60.779C92.3898 61.4244 92.6942 62.3802 92.6942 63.6466V69.4H89.5527L89.5344 64.1397C89.5344 63.677 89.4066 63.3543 89.1508 63.1717C88.8951 62.9769 88.609 62.8795 88.2924 62.8795C87.9515 62.8795 87.6653 62.9708 87.434 63.1534C87.2026 63.3239 87.0017 63.5309 86.8312 63.7744V69.4H83.6897V57.1626H86.8312V61.2904C87.1235 60.8886 87.4766 60.5416 87.8906 60.2493C88.3168 59.9571 88.8403 59.811 89.4613 59.811Z" fill="#2C2C2C"/>
</svg>