<svg xmlns="http://www.w3.org/2000/svg" width="340" height="340" viewBox="0 0 340 340" fill="none">
  <rect width="340" height="340" rx="170" fill="white"/>
  <rect x="0.5" y="0.5" width="339" height="339" rx="169.5" stroke="black" stroke-opacity="0.1"/>
  <path d="M132.02 185.152C128.963 185.152 126.26 184.551 123.912 183.35C121.564 182.122 119.749 180.388 118.466 178.15C117.183 175.911 116.541 173.277 116.541 170.246C116.541 167.216 117.183 164.581 118.466 162.343C119.749 160.077 121.564 158.343 123.912 157.142C126.26 155.914 128.963 155.299 132.02 155.299C134.095 155.299 135.924 155.518 137.508 155.955C139.118 156.364 140.592 157.019 141.93 157.92V163.858C140.729 162.875 139.35 162.165 137.794 161.729C136.265 161.264 134.518 161.032 132.553 161.032C130.723 161.032 129.072 161.415 127.598 162.179C126.151 162.916 125.004 163.981 124.158 165.373C123.311 166.765 122.888 168.39 122.888 170.246C122.888 172.13 123.27 173.782 124.035 175.201C124.827 176.593 125.932 177.672 127.352 178.436C128.771 179.201 130.409 179.583 132.266 179.583C133.958 179.583 135.433 179.283 136.689 178.682V173.154H132.061V168.567H142.708V182.367C140.005 184.224 136.443 185.152 132.02 185.152Z" fill="#196D3A"/>
  <path d="M144.146 164.882H150.124V167.707C150.916 166.752 152.022 166.028 153.441 165.537C154.861 165.018 156.472 164.759 158.273 164.759V169.468C156.39 169.468 154.724 169.755 153.277 170.328C151.858 170.901 150.875 171.775 150.329 172.949V184.538H144.146V164.882Z" fill="#196D3A"/>
  <path d="M170.156 185.152C166.389 185.152 163.427 184.251 161.27 182.449C159.113 180.62 158.035 178.068 158.035 174.792C158.035 171.543 158.991 168.977 160.902 167.093C162.84 165.209 165.597 164.267 169.174 164.267C171.521 164.267 173.514 164.704 175.152 165.578C176.79 166.451 178.032 167.666 178.879 169.222C179.725 170.751 180.148 172.485 180.148 174.423V176.921H163.932C164.369 179.433 166.716 180.688 170.975 180.688C172.231 180.688 173.528 180.579 174.866 180.361C176.203 180.142 177.364 179.842 178.346 179.46V183.801C177.391 184.21 176.162 184.538 174.661 184.784C173.159 185.029 171.658 185.152 170.156 185.152ZM174.292 172.908C174.21 171.598 173.719 170.587 172.818 169.878C171.917 169.141 170.675 168.772 169.092 168.772C167.536 168.772 166.307 169.141 165.406 169.878C164.505 170.615 164.014 171.625 163.932 172.908H174.292Z" fill="#196D3A"/>
  <path d="M192.823 185.152C189.055 185.152 186.093 184.251 183.937 182.449C181.78 180.62 180.702 178.068 180.702 174.792C180.702 171.543 181.657 168.977 183.568 167.093C185.506 165.209 188.264 164.267 191.84 164.267C194.188 164.267 196.181 164.704 197.819 165.578C199.457 166.451 200.699 167.666 201.545 169.222C202.392 170.751 202.815 172.485 202.815 174.423V176.921H186.598C187.035 179.433 189.383 180.688 193.642 180.688C194.898 180.688 196.194 180.579 197.532 180.361C198.87 180.142 200.03 179.842 201.013 179.46V183.801C200.057 184.21 198.829 184.538 197.327 184.784C195.826 185.029 194.324 185.152 192.823 185.152ZM196.959 172.908C196.877 171.598 196.386 170.587 195.485 169.878C194.584 169.141 193.342 168.772 191.758 168.772C190.202 168.772 188.974 169.141 188.073 169.878C187.172 170.615 186.68 171.625 186.598 172.908H196.959Z" fill="#196D3A"/>
  <path d="M204.187 164.882H210.166V167.298C211.067 166.288 212.132 165.537 213.36 165.046C214.616 164.527 215.926 164.267 217.291 164.267C219.967 164.267 221.96 164.991 223.27 166.438C224.608 167.857 225.277 169.782 225.277 172.212V184.538H219.093V172.908C219.093 170.369 217.919 169.1 215.571 169.1C214.534 169.1 213.565 169.359 212.664 169.878C211.763 170.369 210.999 171.106 210.371 172.089V184.538H204.187V164.882Z" fill="#196D3A"/>
  <path d="M230.732 161.851C229.777 161.851 228.972 161.537 228.316 160.91C227.661 160.282 227.334 159.49 227.334 158.534C227.334 157.606 227.661 156.828 228.316 156.2C228.972 155.545 229.777 155.217 230.732 155.217C231.688 155.217 232.493 155.545 233.149 156.2C233.804 156.828 234.131 157.606 234.131 158.534C234.131 159.49 233.804 160.282 233.149 160.91C232.493 161.537 231.688 161.851 230.732 161.851ZM227.62 164.882H233.845V184.538H227.62V164.882Z" fill="#196D3A"/>
  <path d="M244.391 185.152C242.916 185.152 241.333 184.988 239.64 184.661C237.975 184.36 236.665 183.924 235.709 183.35V178.518C236.801 179.173 238.112 179.706 239.64 180.115C241.169 180.525 242.589 180.729 243.899 180.729C245.019 180.729 245.838 180.634 246.356 180.443C246.875 180.252 247.134 179.897 247.134 179.378C247.134 178.969 246.984 178.641 246.684 178.395C246.384 178.122 245.919 177.89 245.292 177.699C244.691 177.481 243.681 177.167 242.261 176.757C240.596 176.266 239.286 175.774 238.33 175.283C237.402 174.764 236.692 174.123 236.201 173.358C235.737 172.594 235.504 171.611 235.504 170.41C235.504 168.362 236.31 166.834 237.921 165.824C239.559 164.786 241.77 164.267 244.554 164.267C245.919 164.267 247.325 164.418 248.772 164.718C250.247 164.991 251.379 165.359 252.171 165.824V170.533C251.379 170.014 250.342 169.591 249.059 169.263C247.803 168.936 246.575 168.772 245.373 168.772C244.254 168.772 243.381 168.881 242.753 169.1C242.152 169.318 241.852 169.728 241.852 170.328C241.852 170.847 242.138 171.243 242.712 171.516C243.312 171.789 244.418 172.13 246.029 172.539L246.848 172.744C248.568 173.208 249.905 173.727 250.861 174.3C251.816 174.846 252.485 175.515 252.867 176.307C253.277 177.071 253.482 178.04 253.482 179.214C253.482 181.016 252.704 182.463 251.147 183.555C249.591 184.62 247.339 185.152 244.391 185.152Z" fill="#196D3A"/>
  <path d="M254.911 154.276H261.094V167.134C262.023 166.178 263.074 165.469 264.248 165.005C265.422 164.513 266.677 164.267 268.015 164.267C270.691 164.267 272.683 164.991 273.994 166.438C275.332 167.857 276 169.782 276 172.212V184.538H269.817V172.908C269.817 170.369 268.643 169.1 266.295 169.1C265.258 169.1 264.289 169.359 263.388 169.878C262.487 170.369 261.722 171.106 261.094 172.089V184.538H254.911V154.276Z" fill="#196D3A"/>
  <path fill-rule="evenodd" clip-rule="evenodd" d="M95.4188 160.071C95.4188 165.273 91.202 169.489 86.0003 169.489C80.7986 169.489 76.5818 165.273 76.5818 160.071C76.5818 154.869 80.7986 150.652 86.0003 150.652C91.202 150.652 95.4188 154.869 95.4188 160.071ZM64.0919 168.805C74.3532 168.113 83.2962 175.796 84.1292 186.079C84.2155 187.144 84.2114 188.197 84.1232 189.227C73.8619 189.919 64.9189 182.237 64.0859 171.954C63.9996 170.888 64.0037 169.836 64.0919 168.805ZM90.7606 188.867C101.043 188.034 108.726 179.091 108.034 168.83C107.004 168.742 105.951 168.738 104.886 168.824C94.603 169.657 86.9204 178.6 87.612 188.861C88.643 188.95 89.695 188.954 90.7606 188.867Z" fill="#196D3A"/>
</svg>