<svg xmlns="http://www.w3.org/2000/svg" width="200" height="200" viewBox="0 0 200 200" fill="none">
    <g clip-path="url(#clip0_723_1332)">
        <path fill-rule="evenodd" clip-rule="evenodd" d="M11.4966 100C11.4966 51.1196 51.1301 11.4943 100.021 11.4943C144.973 11.4943 182.107 44.9983 187.79 88.3898L199.19 86.8975C192.767 37.8584 150.82 0 100.021 0C44.7807 0 0 44.7715 0 100C0 155.228 44.7807 200 100.021 200C150.188 200 191.719 163.079 198.933 114.932L199.425 111.644L196.821 109.578C190.411 104.494 178.827 98.9772 167.385 95.1277C165.094 94.357 162.735 93.6458 160.317 93.0133C155.334 82.3515 146.204 74.3161 135.256 70.6251C138.744 66.3276 140.833 60.8503 140.833 54.8851C140.833 41.0779 129.638 29.8851 115.828 29.8851H58.9201V108.621H70.4167V79.8851H121.609C130.703 79.8851 139.096 83.8197 144.891 90.2945C128.194 88.8164 109.696 92.0832 91.3294 105.015C79.202 112.961 71.4564 124.791 66.6748 135.991C61.8836 147.213 59.8723 158.25 59.503 165.213L59.2887 169.253L63.0211 170.818C88.1826 181.362 116.339 182.154 137.91 170.78C158.061 160.156 171.432 139.469 171.59 108.946C177.701 111.436 183.144 114.181 186.978 116.667C179.184 157.578 143.21 188.506 100.021 188.506C51.1301 188.506 11.4966 148.88 11.4966 100ZM115.828 68.3908C123.289 68.3908 129.337 62.3441 129.337 54.8851C129.337 47.426 123.289 41.3793 115.828 41.3793H70.4167V68.3908H115.828ZM160.03 104.86L160.031 104.86C160.606 120.615 157.416 133.022 151.755 142.489V110.628L160.03 104.86ZM149.437 102.435C133.459 99.8428 115.648 101.922 97.8746 114.465L97.789 114.526L97.7013 114.583C88.036 120.89 81.4848 130.581 77.2484 140.503C74.8944 146.017 73.3157 151.463 72.3256 156.19L149.437 102.435ZM76.0969 163.369C80.6211 164.784 85.1673 165.839 89.6736 166.532V153.905L76.0969 163.369ZM96.5715 167.313C100.473 167.595 104.319 167.598 108.068 167.321V141.082L96.5715 149.096V167.313ZM114.966 166.474C118.968 165.78 122.819 164.741 126.463 163.355V128.259L114.966 136.274V166.474ZM133.361 160.175C137.552 157.87 141.429 154.982 144.857 151.469V115.436L133.361 123.451V160.175Z" fill="url(#paint0_linear_723_1332)"/>
    </g>
    <defs>
        <linearGradient id="paint0_linear_723_1332" x1="99.7126" y1="0" x2="99.7126" y2="200" gradientUnits="userSpaceOnUse">
            <stop stop-color="#00A9CF"/>
            <stop offset="1" stop-color="#3DC37A"/>
        </linearGradient>
        <clipPath id="clip0_723_1332">
            <rect width="200" height="200" fill="white"/>
        </clipPath>
    </defs>
</svg>