<svg xmlns="http://www.w3.org/2000/svg" width="230" height="230" viewBox="0 0 230 230" fill="none">
  <rect width="230" height="230" rx="115" fill="white"/>
  <rect x="0.5" y="0.5" width="229" height="229" rx="114.5" stroke="black" stroke-opacity="0.1"/>
  <path d="M49.4231 104.995C51.3157 103.189 53.8855 102.134 56.4901 102.003C57.3816 102.003 58.2756 102.008 59.1671 102C59.1216 102.956 59.1671 103.914 59.1403 104.87C59.0145 107.006 58.2248 109.094 56.8944 110.77C55.1651 113.024 52.5203 114.536 49.7122 114.927C48.4862 115.125 47.2414 114.999 46.0074 115.034C46.0288 113.982 45.9619 112.927 46.0448 111.878C46.2858 109.276 47.5145 106.784 49.4231 104.995Z" fill="#FFC100"/>
  <path d="M59.9941 102C60.9498 102.011 61.9055 101.995 62.8638 102.005C65.2489 102.174 67.6019 103.09 69.3981 104.677C71.379 106.377 72.7362 108.807 73.0842 111.404C73.2368 112.609 73.1404 113.827 73.1993 115.037C72.3641 115.034 71.5316 115.031 70.6964 115.037C68.6432 114.98 66.6248 114.316 64.9063 113.198C64.1139 112.63 63.3001 112.054 62.7058 111.267C61.4022 109.811 60.5161 107.983 60.1815 106.056C59.9299 104.717 60.0316 103.352 59.9941 102Z" fill="#FFC100"/>
  <path d="M46.0099 115.802C46.8585 115.85 47.7097 115.762 48.5556 115.856C52.1775 115.933 55.6923 117.968 57.5688 121.065C58.6449 122.799 59.2231 124.855 59.1482 126.898C59.1455 127.567 59.1562 128.234 59.1375 128.9C57.7937 128.86 56.4365 128.97 55.106 128.71C52.1507 128.212 49.4337 126.453 47.7981 123.942C46.5587 122.117 45.9403 119.887 46.0045 117.684C46.0045 117.055 46.0045 116.428 46.0099 115.802Z" fill="#FFC100"/>
  <path d="M68.6765 116.086C70.1327 115.762 71.6345 115.815 73.1148 115.815L73.179 115.88C73.1469 117.28 73.2567 118.696 72.9756 120.08C72.384 123.185 70.3281 125.958 67.5629 127.481C65.8416 128.44 63.8661 128.911 61.8985 128.889C61.2695 128.892 60.6377 128.879 60.0086 128.897C60.0086 127.738 59.9605 126.574 60.0916 125.42C60.3968 122.628 61.9066 120.029 64.0775 118.273C65.4214 117.213 67.0007 116.444 68.6765 116.086Z" fill="#FFC100"/>
  <path d="M84.1689 123.715C84.1689 124.187 84.0057 124.585 83.6795 124.912C83.3713 125.22 82.9816 125.374 82.5104 125.374C82.0572 125.374 81.6766 125.22 81.3685 124.912C81.0603 124.585 80.9062 124.187 80.9062 123.715V106.913C80.9062 106.442 81.0603 106.052 81.3685 105.744C81.6947 105.418 82.0935 105.254 82.5648 105.254C83.036 105.254 83.4167 105.418 83.7067 105.744C84.0148 106.052 84.1689 106.442 84.1689 106.913V123.715Z" fill="black"/>
  <path d="M97.2642 110.828C97.7355 110.828 98.1252 110.991 98.4333 111.317C98.7414 111.626 98.8955 112.015 98.8955 112.487V119.392C98.8955 121.314 98.3608 122.836 97.2914 123.96C96.222 125.084 94.6813 125.646 92.6693 125.646C90.6574 125.646 89.1167 125.084 88.0473 123.96C86.996 122.836 86.4703 121.314 86.4703 119.392V112.487C86.4703 112.015 86.6244 111.626 86.9325 111.317C87.2407 110.991 87.6304 110.828 88.1017 110.828C88.5729 110.828 88.9626 110.991 89.2708 111.317C89.5789 111.626 89.733 112.015 89.733 112.487V119.392C89.733 120.498 89.9777 121.323 90.4671 121.867C90.9565 122.392 91.6905 122.655 92.6693 122.655C93.6662 122.655 94.4094 122.392 94.8988 121.867C95.3882 121.323 95.6329 120.498 95.6329 119.392V112.487C95.6329 112.015 95.7869 111.626 96.0951 111.317C96.4032 110.991 96.7929 110.828 97.2642 110.828Z" fill="black"/>
  <path d="M108.708 110.556C110.158 110.556 111.228 110.91 111.916 111.617C112.605 112.305 113.058 113.203 113.276 114.308L112.814 114.063L113.031 113.628C113.249 113.212 113.584 112.767 114.037 112.296C114.49 111.807 115.034 111.399 115.668 111.073C116.321 110.728 117.046 110.556 117.844 110.556C119.149 110.556 120.136 110.837 120.807 111.399C121.496 111.961 121.967 112.713 122.221 113.656C122.475 114.58 122.602 115.613 122.602 116.755V123.715C122.602 124.187 122.448 124.585 122.139 124.912C121.831 125.22 121.442 125.374 120.97 125.374C120.499 125.374 120.109 125.22 119.801 124.912C119.493 124.585 119.339 124.187 119.339 123.715V116.755C119.339 116.157 119.266 115.622 119.121 115.151C118.976 114.662 118.714 114.272 118.333 113.982C117.952 113.692 117.409 113.547 116.702 113.547C116.013 113.547 115.424 113.692 114.934 113.982C114.445 114.272 114.073 114.662 113.82 115.151C113.584 115.622 113.466 116.157 113.466 116.755V123.715C113.466 124.187 113.312 124.585 113.004 124.912C112.696 125.22 112.306 125.374 111.835 125.374C111.364 125.374 110.974 125.22 110.666 124.912C110.358 124.585 110.204 124.187 110.204 123.715V116.755C110.204 116.157 110.131 115.622 109.986 115.151C109.841 114.662 109.578 114.272 109.198 113.982C108.817 113.692 108.273 113.547 107.566 113.547C106.878 113.547 106.288 113.692 105.799 113.982C105.31 114.272 104.938 114.662 104.684 115.151C104.449 115.622 104.331 116.157 104.331 116.755V123.715C104.331 124.187 104.177 124.585 103.869 124.912C103.561 125.22 103.171 125.374 102.7 125.374C102.228 125.374 101.839 125.22 101.53 124.912C101.222 124.585 101.068 124.187 101.068 123.715V112.487C101.068 112.015 101.222 111.626 101.53 111.317C101.839 110.991 102.228 110.828 102.7 110.828C103.171 110.828 103.561 110.991 103.869 111.317C104.177 111.626 104.331 112.015 104.331 112.487V113.656L103.923 113.574C104.086 113.266 104.313 112.94 104.603 112.595C104.893 112.233 105.246 111.897 105.663 111.589C106.08 111.281 106.542 111.036 107.05 110.855C107.557 110.656 108.11 110.556 108.708 110.556Z" fill="black"/>
  <path d="M127.846 123.715C127.846 124.187 127.691 124.585 127.383 124.912C127.075 125.22 126.686 125.374 126.214 125.374C125.743 125.374 125.353 125.22 125.045 124.912C124.737 124.585 124.583 124.187 124.583 123.715V112.487C124.583 112.015 124.737 111.626 125.045 111.317C125.353 110.991 125.743 110.828 126.214 110.828C126.686 110.828 127.075 110.991 127.383 111.317C127.691 111.626 127.846 112.015 127.846 112.487V123.715ZM126.187 109.061C125.571 109.061 125.136 108.961 124.882 108.762C124.628 108.562 124.501 108.209 124.501 107.701V107.185C124.501 106.659 124.637 106.306 124.909 106.124C125.199 105.925 125.634 105.825 126.214 105.825C126.849 105.825 127.293 105.925 127.546 106.124C127.8 106.324 127.927 106.677 127.927 107.185V107.701C127.927 108.227 127.791 108.59 127.519 108.789C127.247 108.97 126.803 109.061 126.187 109.061Z" fill="black"/>
  <path d="M137.615 110.556C138.956 110.556 139.972 110.837 140.66 111.399C141.367 111.961 141.848 112.713 142.101 113.656C142.373 114.58 142.509 115.613 142.509 116.755V123.715C142.509 124.187 142.355 124.585 142.047 124.912C141.739 125.22 141.349 125.374 140.878 125.374C140.407 125.374 140.017 125.22 139.709 124.912C139.401 124.585 139.246 124.187 139.246 123.715V116.755C139.246 116.157 139.165 115.622 139.002 115.151C138.857 114.662 138.585 114.272 138.186 113.982C137.787 113.692 137.216 113.547 136.473 113.547C135.748 113.547 135.132 113.692 134.624 113.982C134.135 114.272 133.754 114.662 133.483 115.151C133.229 115.622 133.102 116.157 133.102 116.755V123.715C133.102 124.187 132.948 124.585 132.64 124.912C132.332 125.22 131.942 125.374 131.471 125.374C130.999 125.374 130.61 125.22 130.301 124.912C129.993 124.585 129.839 124.187 129.839 123.715V112.487C129.839 112.015 129.993 111.626 130.301 111.317C130.61 110.991 130.999 110.828 131.471 110.828C131.942 110.828 132.332 110.991 132.64 111.317C132.948 111.626 133.102 112.015 133.102 112.487V113.656L132.694 113.574C132.857 113.266 133.093 112.94 133.401 112.595C133.709 112.233 134.072 111.897 134.488 111.589C134.905 111.281 135.377 111.036 135.902 110.855C136.428 110.656 136.999 110.556 137.615 110.556Z" fill="black"/>
  <path d="M158.651 118.115C158.651 119.601 158.316 120.915 157.645 122.057C156.993 123.181 156.104 124.06 154.981 124.694C153.875 125.329 152.633 125.646 151.256 125.646C149.878 125.646 148.628 125.329 147.504 124.694C146.398 124.06 145.51 123.181 144.839 122.057C144.187 120.915 143.86 119.601 143.86 118.115C143.86 116.628 144.187 115.323 144.839 114.199C145.51 113.058 146.398 112.169 147.504 111.535C148.628 110.882 149.878 110.556 151.256 110.556C152.633 110.556 153.875 110.882 154.981 111.535C156.104 112.169 156.993 113.058 157.645 114.199C158.316 115.323 158.651 116.628 158.651 118.115ZM155.388 118.115C155.388 117.19 155.198 116.393 154.817 115.722C154.455 115.033 153.956 114.498 153.322 114.118C152.706 113.737 152.017 113.547 151.256 113.547C150.494 113.547 149.797 113.737 149.162 114.118C148.546 114.498 148.047 115.033 147.667 115.722C147.304 116.393 147.123 117.19 147.123 118.115C147.123 119.021 147.304 119.818 147.667 120.507C148.047 121.178 148.546 121.703 149.162 122.084C149.797 122.465 150.494 122.655 151.256 122.655C152.017 122.655 152.706 122.465 153.322 122.084C153.956 121.703 154.455 121.178 154.817 120.507C155.198 119.818 155.388 119.021 155.388 118.115Z" fill="black"/>
  <path d="M170.811 110.828C171.283 110.828 171.672 110.991 171.98 111.317C172.289 111.626 172.443 112.015 172.443 112.487V119.392C172.443 121.314 171.908 122.836 170.839 123.96C169.769 125.084 168.228 125.646 166.216 125.646C164.204 125.646 162.664 125.084 161.594 123.96C160.543 122.836 160.017 121.314 160.017 119.392V112.487C160.017 112.015 160.172 111.626 160.48 111.317C160.788 110.991 161.178 110.828 161.649 110.828C162.12 110.828 162.51 110.991 162.818 111.317C163.126 111.626 163.28 112.015 163.28 112.487V119.392C163.28 120.498 163.525 121.323 164.014 121.867C164.504 122.392 165.238 122.655 166.216 122.655C167.213 122.655 167.957 122.392 168.446 121.867C168.935 121.323 169.18 120.498 169.18 119.392V112.487C169.18 112.015 169.334 111.626 169.642 111.317C169.95 110.991 170.34 110.828 170.811 110.828Z" fill="black"/>
  <path d="M173.773 123.117C173.591 122.864 173.51 122.537 173.528 122.138C173.546 121.74 173.782 121.395 174.235 121.105C174.525 120.924 174.833 120.852 175.159 120.888C175.485 120.906 175.803 121.069 176.111 121.377C176.636 121.903 177.189 122.311 177.769 122.601C178.349 122.891 179.074 123.036 179.944 123.036C180.216 123.018 180.515 122.981 180.842 122.927C181.168 122.854 181.449 122.709 181.684 122.492C181.938 122.256 182.065 121.903 182.065 121.432C182.065 121.033 181.929 120.716 181.657 120.48C181.385 120.244 181.023 120.045 180.57 119.882C180.135 119.719 179.645 119.565 179.101 119.42C178.54 119.256 177.96 119.075 177.361 118.876C176.781 118.676 176.247 118.423 175.757 118.115C175.268 117.788 174.869 117.362 174.561 116.837C174.253 116.311 174.099 115.649 174.099 114.852C174.099 113.946 174.353 113.175 174.86 112.541C175.368 111.907 176.02 111.417 176.818 111.073C177.633 110.728 178.485 110.556 179.373 110.556C179.935 110.556 180.524 110.629 181.141 110.774C181.757 110.901 182.346 111.118 182.908 111.426C183.47 111.716 183.941 112.106 184.322 112.595C184.521 112.867 184.639 113.193 184.675 113.574C184.711 113.955 184.539 114.299 184.159 114.607C183.887 114.825 183.569 114.924 183.207 114.906C182.844 114.87 182.545 114.743 182.31 114.526C182.002 114.127 181.585 113.81 181.059 113.574C180.552 113.338 179.962 113.221 179.292 113.221C179.02 113.221 178.721 113.257 178.395 113.329C178.086 113.384 177.815 113.52 177.579 113.737C177.343 113.937 177.225 114.263 177.225 114.716C177.225 115.133 177.361 115.468 177.633 115.722C177.905 115.958 178.268 116.157 178.721 116.32C179.192 116.465 179.691 116.61 180.216 116.755C180.76 116.9 181.313 117.072 181.875 117.272C182.437 117.471 182.953 117.734 183.424 118.06C183.896 118.386 184.276 118.812 184.566 119.338C184.856 119.846 185.001 120.498 185.001 121.296C185.001 122.22 184.73 123.009 184.186 123.661C183.642 124.314 182.962 124.812 182.147 125.156C181.331 125.483 180.497 125.646 179.645 125.646C178.576 125.646 177.506 125.465 176.437 125.102C175.368 124.721 174.479 124.06 173.773 123.117Z" fill="black"/>
</svg>