<svg xmlns="http://www.w3.org/2000/svg" width="24" height="24" viewBox="0 0 24 24" fill="none">
    <path d="M11.0716 1.5C10.7298 1.5 10.4263 1.71873 10.3183 2.043V2.043C10.141 2.5745 9.90065 3.08281 9.60225 3.557C9.20178 4.18804 8.65456 4.7128 8.00731 5.0865C7.36005 5.46019 6.63198 5.67171 5.88525 5.703C5.32577 5.72422 4.76577 5.67823 4.21725 5.566V5.566C3.88225 5.49733 3.5409 5.65079 3.36991 5.94694L2.44281 7.55269C2.27166 7.84911 2.30929 8.22178 2.53625 8.478V8.478C2.91025 8.9 3.22925 9.362 3.48925 9.854C3.83551 10.5163 4.01636 11.2526 4.01636 12C4.01636 12.7474 3.83551 13.4837 3.48925 14.146C3.22776 14.6411 2.90781 15.1031 2.53625 15.522V15.522C2.30929 15.7782 2.27166 16.1509 2.44281 16.4473L3.3704 18.0539C3.54108 18.3495 3.88187 18.5027 4.21625 18.434V18.434C4.76542 18.3216 5.32611 18.2756 5.88625 18.297C6.63281 18.3285 7.36068 18.54 8.00775 18.9137C8.65482 19.2874 9.20188 19.8121 9.60225 20.443C9.89825 20.913 10.1393 21.422 10.3183 21.957V21.957C10.4263 22.2813 10.7298 22.5 11.0716 22.5H12.9269C13.2687 22.5 13.5722 22.2813 13.6803 21.957V21.957C13.8593 21.421 14.1002 20.914 14.3962 20.443C14.7967 19.812 15.3439 19.2872 15.9912 18.9135C16.6384 18.5398 17.3665 18.3283 18.1133 18.297C18.6727 18.2758 19.2327 18.3218 19.7812 18.434V18.434C20.1163 18.5027 20.4576 18.3492 20.6286 18.0531L21.5557 16.4473C21.7268 16.1509 21.6892 15.7782 21.4622 15.522V15.522C21.0907 15.1031 20.7708 14.6411 20.5093 14.146C20.163 13.4837 19.9821 12.7474 19.9821 12C19.9821 11.2526 20.163 10.5163 20.5093 9.854C20.7693 9.362 21.0882 8.9 21.4622 8.478V8.478C21.6892 8.22178 21.7268 7.84911 21.5557 7.55269L20.6281 5.94609C20.4574 5.65047 20.1166 5.49733 19.7823 5.566V5.566C19.2331 5.67838 18.6724 5.72437 18.1123 5.703C17.3657 5.67155 16.6378 5.45995 15.9908 5.08627C15.3437 4.71259 14.7966 4.1879 14.3962 3.557C14.0978 3.08282 13.8574 2.57451 13.6803 2.043V2.043C13.5722 1.71873 13.2687 1.5 12.9269 1.5H11.0716Z" stroke="white" stroke-width="1.5"/>
    <path d="M15.502 12C15.502 12.9288 15.1331 13.8196 14.4763 14.4763C13.8196 15.1331 12.9288 15.502 12 15.502C11.0713 15.502 10.1805 15.1331 9.52376 14.4763C8.86701 13.8196 8.49805 12.9288 8.49805 12C8.49805 11.0713 8.86701 10.1805 9.52376 9.52376C10.1805 8.86701 11.0713 8.49805 12 8.49805C12.9288 8.49805 13.8196 8.86701 14.4763 9.52376C15.1331 10.1805 15.502 11.0713 15.502 12Z" stroke="white" stroke-width="1.5"/>
</svg>