<svg xmlns="http://www.w3.org/2000/svg" width="190" height="190" viewBox="0 0 190 190" fill="none">
  <rect width="190" height="190" rx="95" fill="white"/>
  <rect x="0.5" y="0.5" width="189" height="189" rx="94.5" stroke="black" stroke-opacity="0.1"/>
  <path d="M81 84.1641L90.7104 79.8423L96.2995 83.0837L97.4287 93.7177L90.541 93.6609L91.5573 86.2682L90.3717 85.5858L84.5567 90.1351L81 84.1641Z" fill="#B4C0D3"/>
  <path d="M96.9199 82.6287L105.501 88.9409L108.889 82.8562L102.001 80.0697V78.7049L108.889 75.8616L105.501 69.8337L96.9199 76.1459V82.6287Z" fill="#00D3AB"/>
  <path d="M96.2995 75.634L97.4287 65L90.541 65.1137L91.5573 72.5064L90.3717 73.1888L84.5003 68.6395L81 74.5536L90.7104 78.8754L96.2995 75.634Z" fill="#4876EF"/>
  <path d="M60.1022 111.572V121.534H63.8088V108.838H58.4106V111.572H60.1022Z" fill="#4876EE"/>
  <path d="M59.9861 107.054C60.326 107.409 60.8435 107.587 61.5386 107.587C62.2336 107.587 62.7433 107.409 63.0675 107.054C63.4074 106.683 63.5771 106.22 63.5771 105.664C63.5771 105.092 63.4074 104.629 63.0675 104.274C62.7433 103.903 62.2336 103.718 61.5386 103.718C60.8435 103.718 60.326 103.903 59.9861 104.274C59.6619 104.629 59.4996 105.092 59.4996 105.664C59.4996 106.22 59.6619 106.683 59.9861 107.054Z" fill="#4876EE"/>
  <path d="M47.1974 121.256C48.2476 121.735 49.5374 121.975 51.0663 121.975C52.5027 121.975 53.7384 121.751 54.7733 121.303C55.8083 120.855 56.6037 120.229 57.1596 119.426C57.7312 118.607 58.017 117.658 58.017 116.576C58.017 115.526 57.7468 114.638 57.2062 113.912C56.6809 113.171 55.9474 112.591 55.005 112.174C54.063 111.742 52.9739 111.472 51.7382 111.363L50.441 111.248C49.6687 111.186 49.1124 110.977 48.7726 110.622C48.433 110.267 48.2629 109.85 48.2629 109.371C48.2629 109 48.3558 108.66 48.5409 108.352C48.7263 108.027 49.0042 107.772 49.3751 107.587C49.7612 107.402 50.2325 107.309 50.7884 107.309C51.3752 107.309 51.8617 107.417 52.2479 107.633C52.3329 107.679 52.4135 107.728 52.4896 107.78L52.5079 107.793C52.5363 107.812 52.5643 107.833 52.5911 107.853C52.8258 108.032 53.0127 108.245 53.1515 108.491C53.3522 108.83 53.453 109.209 53.453 109.626H57.1596C57.1596 108.514 56.9048 107.548 56.3951 106.73C55.8855 105.896 55.152 105.255 54.1943 104.807C53.2519 104.343 52.1166 104.112 50.7884 104.112C49.5217 104.112 48.4252 104.328 47.4985 104.76C46.5717 105.177 45.8457 105.78 45.3207 106.567C44.8107 107.355 44.5559 108.29 44.5559 109.371C44.5559 110.869 45.0581 112.074 46.0621 112.985C47.066 113.897 48.4099 114.422 50.0933 114.561L51.3678 114.677C52.4023 114.769 53.1515 114.978 53.6149 115.302C54.0783 115.611 54.3099 116.036 54.3099 116.576C54.3099 116.825 54.2693 117.058 54.1879 117.275C54.1275 117.437 54.0447 117.59 53.9395 117.735C53.6921 118.059 53.3291 118.314 52.8504 118.499C52.3717 118.685 51.777 118.777 51.0663 118.777C50.2787 118.777 49.6378 118.669 49.1434 118.453C48.6491 118.221 48.2786 117.92 48.0312 117.549C47.7995 117.179 47.6839 116.777 47.6839 116.345H44C44 117.441 44.2701 118.414 44.8107 119.264C45.3513 120.098 46.1471 120.762 47.1974 121.256Z" fill="#4876EE"/>
  <path d="M72.0798 121.697C70.7979 121.697 69.7629 121.542 68.9753 121.233C68.1874 120.909 67.6083 120.376 67.2375 119.635C66.8823 118.878 66.7047 117.858 66.7047 116.576V111.549H64.7818V108.838H66.7047V105.409H70.1569V108.838H73.8639V111.549H70.1569V116.715C70.1569 117.318 70.3114 117.781 70.6203 118.105C70.9445 118.414 71.4 118.569 71.9873 118.569H73.8639V121.697H72.0798Z" fill="#4876EE"/>
  <path fill-rule="evenodd" clip-rule="evenodd" d="M78.3272 121.419C79.161 121.789 80.1188 121.975 81.2 121.975C82.2655 121.975 83.208 121.789 84.0265 121.419C84.8451 121.048 85.5248 120.53 86.0654 119.866C86.606 119.202 86.9691 118.445 87.1541 117.596H83.7486C83.5941 117.982 83.3005 118.306 82.8681 118.569C82.4357 118.831 81.8794 118.963 81.2 118.963C80.7791 118.963 80.4027 118.913 80.0714 118.813C79.8192 118.738 79.5931 118.633 79.3927 118.499C78.9294 118.19 78.5895 117.758 78.3735 117.202C78.3134 117.044 78.2619 116.878 78.2186 116.705C78.1746 116.531 78.1392 116.349 78.1123 116.159H87.3858V114.908C87.3858 113.75 87.1388 112.684 86.6445 111.711C86.1501 110.722 85.4319 109.927 84.4899 109.325C83.5631 108.707 82.42 108.398 81.0608 108.398C80.0259 108.398 79.0991 108.583 78.2806 108.954C77.4777 109.309 76.8057 109.796 76.2651 110.413C75.7245 111.031 75.3074 111.734 75.0138 112.522C74.7358 113.294 74.597 114.105 74.597 114.954V115.418C74.597 116.237 74.7358 117.04 75.0138 117.827C75.3074 118.6 75.7245 119.302 76.2651 119.936C76.821 120.554 77.5083 121.048 78.3272 121.419ZM78.1761 113.868C78.1865 113.819 78.1974 113.771 78.2093 113.723C78.2414 113.593 78.2783 113.467 78.3205 113.347C78.3444 113.279 78.3697 113.212 78.3966 113.147C78.6283 112.576 78.9682 112.143 79.4159 111.85C79.5834 111.74 79.7647 111.651 79.9598 111.582C80.2874 111.467 80.6545 111.41 81.0608 111.41C81.6943 111.41 82.2193 111.557 82.6364 111.85C83.0688 112.128 83.3934 112.537 83.6094 113.078C83.6269 113.121 83.6437 113.166 83.6598 113.211C83.6851 113.282 83.709 113.356 83.731 113.431C83.7639 113.543 83.7926 113.659 83.8176 113.779C83.8359 113.868 83.8519 113.958 83.8657 114.051H78.1407C78.1515 113.989 78.1634 113.928 78.1761 113.868Z" fill="#4876EE"/>
  <path d="M88.9155 121.534V108.838H91.858V112.036C91.8979 111.846 91.9435 111.663 91.9946 111.488C92.0379 111.341 92.0849 111.199 92.136 111.062C92.4606 110.197 92.9471 109.549 93.5955 109.116C94.2443 108.668 95.0397 108.444 95.9822 108.444H96.1441C97.1018 108.444 97.8972 108.668 98.5307 109.116C99.1792 109.549 99.666 110.197 99.9902 111.062L100.016 111.128L100.038 111.187C100.052 111.145 100.067 111.103 100.083 111.062C100.423 110.197 100.917 109.549 101.566 109.116C102.214 108.668 103.01 108.444 103.952 108.444H104.114C105.072 108.444 105.875 108.668 106.524 109.116C107.188 109.549 107.69 110.197 108.03 111.062C108.369 111.927 108.54 113.008 108.54 114.306V121.534H104.833V114.097C104.833 113.402 104.647 112.839 104.276 112.406C103.921 111.973 103.411 111.757 102.747 111.757C102.083 111.757 101.558 111.981 101.172 112.429C100.786 112.862 100.592 113.441 100.592 114.167V121.534H96.8623V114.097C96.8623 113.402 96.6772 112.839 96.3064 112.406C95.9512 111.973 95.449 111.757 94.8006 111.757C94.1208 111.757 93.588 111.981 93.2019 112.429C92.8157 112.862 92.6225 113.441 92.6225 114.167V121.534H88.9155Z" fill="#4876EE"/>
  <path fill-rule="evenodd" clip-rule="evenodd" d="M118.442 119.088V121.534H121.384V113.75C121.384 112.576 121.152 111.618 120.689 110.877C120.225 110.12 119.546 109.556 118.65 109.186C117.77 108.815 116.681 108.629 115.384 108.629C115.102 108.629 114.809 108.632 114.503 108.639C114.322 108.642 114.136 108.647 113.947 108.653C113.437 108.668 112.943 108.691 112.464 108.722L112.098 108.747C111.91 108.76 111.734 108.773 111.568 108.786C111.443 108.796 111.325 108.805 111.213 108.815V111.943C111.692 111.912 112.225 111.881 112.812 111.85C112.976 111.841 113.139 111.833 113.3 111.826C113.533 111.815 113.764 111.806 113.991 111.798C114.171 111.791 114.349 111.785 114.526 111.78C115.082 111.765 115.53 111.757 115.87 111.757C116.549 111.757 117.044 111.919 117.353 112.244C117.662 112.568 117.816 113.055 117.816 113.704V113.75H115.522C114.395 113.75 113.399 113.897 112.534 114.19C111.669 114.468 110.997 114.908 110.518 115.511C110.039 116.098 109.8 116.854 109.8 117.781C109.8 118.631 109.993 119.364 110.379 119.982C110.765 120.585 111.298 121.048 111.978 121.372C112.673 121.697 113.476 121.859 114.387 121.859C115.268 121.859 116.009 121.697 116.611 121.372C117.229 121.048 117.708 120.585 118.048 119.982C118.107 119.881 118.163 119.775 118.215 119.666C118.289 119.511 118.354 119.349 118.412 119.178L118.442 119.088ZM117.816 116.831V115.812H115.499C114.85 115.812 114.349 115.974 113.993 116.298C113.654 116.607 113.483 117.032 113.483 117.573C113.483 117.827 113.526 118.058 113.611 118.267C113.696 118.476 113.823 118.661 113.993 118.824C114.349 119.133 114.85 119.287 115.499 119.287C115.623 119.287 115.742 119.281 115.857 119.269C115.951 119.259 116.043 119.245 116.131 119.227C116.301 119.192 116.461 119.143 116.611 119.079C116.951 118.924 117.229 118.669 117.445 118.314C117.662 117.959 117.785 117.464 117.816 116.831Z" fill="#4876EE"/>
  <path d="M123.602 121.534V108.838H126.545V113.029C126.686 111.832 127.041 110.868 127.611 110.135C128.383 109.162 129.495 108.676 130.947 108.676H131.433V111.873H130.507C129.487 111.873 128.699 112.151 128.144 112.707C127.587 113.248 127.309 114.036 127.309 115.07V121.534H123.602Z" fill="#4876EE"/>
  <path d="M136.134 115.603H137.362L141.37 121.534H145.541L140.458 114.25L144.637 108.838H140.745L136.134 114.875V104.621H132.427V121.534H136.134V115.603Z" fill="#4876EE"/>
</svg>