<svg xmlns="http://www.w3.org/2000/svg" width="16" height="16" viewBox="0 0 16 16" fill="none">
    <g clip-path="url(#clip0_696_4103)">
        <path d="M8.00084 15.4287C12.1036 15.4287 15.4294 12.1028 15.4294 8.00011C15.4294 3.89742 12.1036 0.571533 8.00084 0.571533C3.89815 0.571533 0.572266 3.89742 0.572266 8.00011C0.572266 12.1028 3.89815 15.4287 8.00084 15.4287Z" stroke="white" stroke-opacity="0.3" stroke-linecap="round" stroke-linejoin="round"/>
        <path d="M7.92969 5.33447V8.19162" stroke="white" stroke-opacity="0.3" stroke-linecap="round" stroke-linejoin="round"/>
        <path fill-rule="evenodd" clip-rule="evenodd" d="M8.43025 10.0488C8.43025 10.1551 8.39712 10.2536 8.34062 10.3345C8.39712 10.4155 8.43025 10.514 8.43025 10.6203C8.43025 10.8964 8.20639 11.1203 7.93025 11.1203C7.49631 11.1203 7.14453 10.7685 7.14453 10.3345C7.14453 9.90155 7.49479 9.55035 7.92743 9.54883C7.92818 9.54883 7.92893 9.54883 7.92969 9.54883C7.92978 9.54883 7.92987 9.54883 7.92997 9.54883C7.93006 9.54883 7.93015 9.54883 7.93025 9.54883C7.931 9.54883 7.93175 9.54883 7.93251 9.54883" fill="white" fill-opacity="0.3"/>
    </g>
    <defs>
        <clipPath id="clip0_696_4103">
            <rect width="16" height="16" fill="white"/>
        </clipPath>
    </defs>
</svg>