<svg xmlns="http://www.w3.org/2000/svg" width="24" height="24" viewBox="0 0 24 24" fill="none">
    <path d="M1.5 9V21M18.5 20.34V20.34C18.5 20.4284 18.4284 20.5 18.34 20.5H5.5C4.94772 20.5 4.5 20.0523 4.5 19.5V10C4.5 9.72386 4.72386 9.5 5 9.5V9.5C6.19347 9.5 7.33807 9.02589 8.18198 8.18198C9.02589 7.33807 9.5 6.19347 9.5 5V3C9.5 2.72386 9.72386 2.5 10 2.5V2.5C10.9283 2.5 11.8185 2.86875 12.4749 3.52513C13.1313 4.1815 13.5 5.07174 13.5 6V8.5C13.5 9.05228 13.9477 9.5 14.5 9.5H22.317C22.418 9.5 22.5 9.58195 22.5 9.68305V9.68305C22.5 9.72628 22.4847 9.76812 22.4568 9.80115L22.261 10.033C19.8317 12.918 18.4997 16.5684 18.5 20.34Z" stroke="white" stroke-width="1.5"/>
</svg>