<svg xmlns="http://www.w3.org/2000/svg" width="23" height="22" viewBox="0 0 23 22" fill="none">
  <path fill-rule="evenodd" clip-rule="evenodd" d="M6.53508 5.25064C6.36668 5.08799 6.14115 4.998 5.90704 5.00003C5.67294 5.00207 5.449 5.09597 5.28346 5.26151C5.11791 5.42705 5.02401 5.65099 5.02198 5.8851C5.01994 6.1192 5.10994 6.34474 5.27258 6.51314L9.99847 11.239L5.27258 15.9649C5.1873 16.0473 5.11928 16.1458 5.07249 16.2547C5.02569 16.3637 5.00106 16.4808 5.00003 16.5994C4.999 16.7179 5.02159 16.8355 5.06649 16.9452C5.11138 17.055 5.17768 17.1547 5.26151 17.2385C5.34534 17.3223 5.44503 17.3886 5.55476 17.4335C5.66449 17.4784 5.78206 17.501 5.90062 17.5C6.01917 17.4989 6.13633 17.4743 6.24526 17.4275C6.35419 17.3807 6.45272 17.3127 6.53508 17.2274L11.261 12.5015L15.9869 17.2274C16.1553 17.3901 16.3808 17.4801 16.6149 17.478C16.849 17.476 17.0729 17.3821 17.2385 17.2165C17.404 17.051 17.4979 16.8271 17.5 16.593C17.502 16.3589 17.412 16.1333 17.2494 15.9649L12.5235 11.239L17.2494 6.51314C17.412 6.34474 17.502 6.1192 17.5 5.8851C17.4979 5.65099 17.404 5.42705 17.2385 5.26151C17.0729 5.09597 16.849 5.00207 16.6149 5.00003C16.3808 4.998 16.1553 5.08799 15.9869 5.25064L11.261 9.97653L6.53508 5.25064Z" fill="#26D74D"/>
</svg>