<svg xmlns="http://www.w3.org/2000/svg" width="190" height="190" viewBox="0 0 190 190" fill="none">
  <rect width="190" height="190" rx="95" fill="white"/>
  <rect x="0.5" y="0.5" width="189" height="189" rx="94.5" stroke="black" stroke-opacity="0.1"/>
  <path d="M81.5 106.152C79.7725 106.152 78.2631 105.76 76.9718 104.974C75.6806 104.189 74.6772 103.098 73.9618 101.703C73.2464 100.289 72.8887 98.6489 72.8887 96.7818C72.8887 94.8973 73.2551 93.2396 73.988 91.8087C74.7383 90.3604 75.794 89.2349 77.1551 88.4323C78.5336 87.6121 80.1651 87.2021 82.0496 87.2021C84.1959 87.2021 85.9757 87.7168 87.3891 88.7463C88.8026 89.7759 89.7186 91.198 90.1374 93.0127H86.3945C86.1153 92.1577 85.6093 91.4946 84.8764 91.0235C84.1436 90.5349 83.2013 90.2906 82.0496 90.2906C80.2174 90.2906 78.804 90.8752 77.8094 92.0443C76.8148 93.1959 76.3175 94.7838 76.3175 96.808C76.3175 98.8321 76.8061 100.403 77.7832 101.519C78.7779 102.619 80.1215 103.168 81.8141 103.168C83.4718 103.168 84.7194 102.723 85.557 101.833C86.412 100.926 86.9267 99.7395 87.1012 98.2737H82.4684V95.761H90.4777V105.838H87.3891L87.1274 103.43C86.5341 104.303 85.7925 104.974 84.9026 105.445C84.0127 105.917 82.8785 106.152 81.5 106.152Z" fill="black"/>
  <path d="M92.3475 105.838V86.9927H95.6978V105.838H92.3475Z" fill="black"/>
  <path d="M104.042 106.152C102.785 106.152 101.651 105.864 100.639 105.288C99.6446 104.713 98.8506 103.919 98.2573 102.907C97.6815 101.877 97.3936 100.69 97.3936 99.3469C97.3936 98.0033 97.6902 96.8254 98.2835 95.8134C98.8768 94.7838 99.6707 93.9812 100.665 93.4053C101.677 92.8295 102.812 92.5416 104.068 92.5416C105.307 92.5416 106.424 92.8295 107.418 93.4053C108.43 93.9812 109.224 94.7838 109.8 95.8134C110.393 96.8254 110.69 98.0033 110.69 99.3469C110.69 100.69 110.393 101.877 109.8 102.907C109.224 103.919 108.43 104.713 107.418 105.288C106.406 105.864 105.281 106.152 104.042 106.152ZM104.042 103.247C104.914 103.247 105.673 102.924 106.319 102.278C106.965 101.615 107.287 100.638 107.287 99.3469C107.287 98.0556 106.965 97.0872 106.319 96.4415C105.673 95.7785 104.923 95.4469 104.068 95.4469C103.178 95.4469 102.41 95.7785 101.765 96.4415C101.136 97.0872 100.822 98.0556 100.822 99.3469C100.822 100.638 101.136 101.615 101.765 102.278C102.41 102.924 103.169 103.247 104.042 103.247Z" fill="black"/>
  <path d="M117.743 106.152C116.591 106.152 115.579 105.969 114.706 105.602C113.834 105.219 113.136 104.695 112.612 104.032C112.089 103.369 111.775 102.601 111.67 101.729H115.047C115.151 102.235 115.431 102.671 115.884 103.037C116.355 103.386 116.957 103.561 117.69 103.561C118.423 103.561 118.955 103.413 119.287 103.116C119.636 102.819 119.81 102.479 119.81 102.095C119.81 101.537 119.566 101.162 119.077 100.97C118.589 100.76 117.908 100.56 117.036 100.368C116.477 100.246 115.91 100.097 115.335 99.9227C114.759 99.7482 114.227 99.5301 113.738 99.2683C113.267 98.9892 112.883 98.6402 112.586 98.2214C112.29 97.7851 112.141 97.2529 112.141 96.6248C112.141 95.4731 112.595 94.5047 113.502 93.7194C114.427 92.9342 115.718 92.5416 117.376 92.5416C118.912 92.5416 120.133 92.8993 121.041 93.6147C121.965 94.3302 122.515 95.3161 122.689 96.5724H119.522C119.33 95.6127 118.606 95.1328 117.35 95.1328C116.722 95.1328 116.233 95.255 115.884 95.4993C115.553 95.7436 115.387 96.0489 115.387 96.4154C115.387 96.7993 115.64 97.1046 116.146 97.3315C116.652 97.5583 117.324 97.7677 118.161 97.9596C119.069 98.169 119.898 98.4046 120.648 98.6663C121.416 98.9106 122.026 99.2858 122.48 99.7918C122.934 100.28 123.161 100.987 123.161 101.912C123.178 102.715 122.969 103.439 122.532 104.084C122.096 104.73 121.468 105.236 120.648 105.602C119.828 105.969 118.859 106.152 117.743 106.152Z" fill="black"/>
  <path d="M130.186 106.152C129.034 106.152 128.022 105.969 127.149 105.602C126.277 105.219 125.579 104.695 125.055 104.032C124.532 103.369 124.218 102.601 124.113 101.729H127.49C127.594 102.235 127.873 102.671 128.327 103.037C128.798 103.386 129.4 103.561 130.133 103.561C130.866 103.561 131.398 103.413 131.73 103.116C132.079 102.819 132.253 102.479 132.253 102.095C132.253 101.537 132.009 101.162 131.52 100.97C131.032 100.76 130.351 100.56 129.479 100.368C128.92 100.246 128.353 100.097 127.777 99.9227C127.202 99.7482 126.669 99.5301 126.181 99.2683C125.71 98.9892 125.326 98.6402 125.029 98.2214C124.733 97.7851 124.584 97.2529 124.584 96.6248C124.584 95.4731 125.038 94.5047 125.945 93.7194C126.87 92.9342 128.161 92.5416 129.819 92.5416C131.355 92.5416 132.576 92.8993 133.483 93.6147C134.408 94.3302 134.958 95.3161 135.132 96.5724H131.965C131.773 95.6127 131.049 95.1328 129.793 95.1328C129.165 95.1328 128.676 95.255 128.327 95.4993C127.996 95.7436 127.83 96.0489 127.83 96.4154C127.83 96.7993 128.083 97.1046 128.589 97.3315C129.095 97.5583 129.767 97.7677 130.604 97.9596C131.512 98.169 132.341 98.4046 133.091 98.6663C133.859 98.9106 134.469 99.2858 134.923 99.7918C135.377 100.28 135.604 100.987 135.604 101.912C135.621 102.715 135.412 103.439 134.975 104.084C134.539 104.73 133.911 105.236 133.091 105.602C132.271 105.969 131.302 106.152 130.186 106.152Z" fill="black"/>
  <path d="M138.195 111.596L141.205 104.974H140.42L135.369 92.8557H139.007L142.645 101.99L146.44 92.8557H150L141.755 111.596H138.195Z" fill="black"/>
  <path d="M48.2279 103.741L61.4335 90.535L59.2619 88.3634L46.0563 101.569L48.2279 103.741Z" fill="#0053EA"/>
  <path d="M53.4487 90.535L48.2279 95.7558L46.0563 93.5842L51.2771 88.3634L53.4487 90.535Z" fill="#0053EA"/>
  <path d="M56.2126 103.741L61.4335 98.5198L59.2619 96.3482L54.0411 101.569L56.2126 103.741Z" fill="#0053EA"/>
  <path fill-rule="evenodd" clip-rule="evenodd" d="M41 108.797V83H66.7969V108.797H41ZM44.0711 86.0711H63.7259V105.726H44.0711V86.0711Z" fill="#0053EA"/>
</svg>