<svg xmlns="http://www.w3.org/2000/svg" width="28" height="28" viewBox="0 0 28 28" fill="none">
    <path d="M23.022 10.783C27.022 16.4159 23.962 22.8678 22.482 25.3846C22.265 25.7366 21.9734 26.037 21.628 26.2648C21.2824 26.4924 20.8914 26.642 20.482 26.7028C17.582 27.2022 10.362 27.7616 6.48198 22.1286C2.66198 16.8154 2.82198 7.46718 3.16198 3.0128C3.17538 2.68094 3.2675 2.357 3.43078 2.06764C3.59406 1.77829 3.8238 1.5318 4.1011 1.34847C4.3784 1.16513 4.69532 1.0502 5.0258 1.01311C5.35628 0.976031 5.69086 1.01787 6.00198 1.13517C10.302 2.37362 19.262 5.4697 23.022 10.783Z" stroke="#2B420E" stroke-width="1.71429" stroke-linecap="round" stroke-linejoin="round"/>
    <path d="M9.54297 8.92529C14.124 14.317 18.1447 20.1596 21.543 26.3632" stroke="#2B420E" stroke-width="1.71429" stroke-linecap="round" stroke-linejoin="round"/>
</svg>