<svg xmlns="http://www.w3.org/2000/svg" width="24" height="24" viewBox="0 0 24 24" fill="none">
  <path d="M1.79324 9.9668H5.82401V20.6985H1.79324C1.56771 20.6985 1.35141 20.609 1.19194 20.4494C1.03246 20.29 0.942871 20.0736 0.942871 19.8482V10.8172C0.942871 10.5916 1.03246 10.3753 1.19194 10.2159C1.35141 10.0564 1.56771 9.9668 1.79324 9.9668Z" stroke="black" stroke-width="1.6" stroke-linecap="round" stroke-linejoin="round"/>
  <path d="M5.82373 9.96617L10.1436 3.06115C10.311 2.78823 10.5463 2.56332 10.8264 2.40833C11.1066 2.25334 11.4222 2.17358 11.7423 2.17677C11.9945 2.16766 12.2459 2.2092 12.4817 2.29893C12.7175 2.38865 12.933 2.52473 13.1153 2.69914C13.2977 2.87355 13.4432 3.08273 13.5433 3.31435C13.6434 3.54595 13.6961 3.79528 13.6982 4.04758V8.99674H21.1645C21.4403 9.00569 21.7111 9.07293 21.9592 9.19406C22.2073 9.31517 22.4269 9.48741 22.6036 9.69946C22.7803 9.91152 22.9101 10.1586 22.9845 10.4244C23.0589 10.6902 23.0762 10.9688 23.0353 11.2417L21.6746 20.0176C21.6167 20.4866 21.3892 20.9183 21.0354 21.2315C20.6815 21.5447 20.2254 21.7178 19.7527 21.7183H8.59594C8.06483 21.7204 7.54062 21.5981 7.06527 21.3611L5.84074 20.7489" stroke="black" stroke-width="1.6" stroke-linecap="round" stroke-linejoin="round"/>
  <path d="M5.82373 9.96631V20.698" stroke="black" stroke-width="1.6" stroke-linecap="round" stroke-linejoin="round"/>
</svg>