<svg xmlns="http://www.w3.org/2000/svg" width="395" height="395" viewBox="0 0 395 395" fill="none">
  <rect width="395" height="395" rx="197.5" fill="white"/>
  <rect x="0.5" y="0.5" width="394" height="394" rx="197" stroke="black" stroke-opacity="0.1"/>
  <path d="M147.011 181.658C147.011 185.888 143.582 189.317 139.352 189.317C135.123 189.317 131.694 185.888 131.694 181.658C131.694 177.429 135.123 174 139.352 174C143.582 174 147.011 177.429 147.011 181.658Z" fill="#34BC85"/>
  <path d="M135.224 215.368C121.293 215.368 110 204.075 110 190.144V178.036C123.931 178.036 135.225 189.329 135.225 203.26L135.224 215.368Z" fill="#34BC85"/>
  <path d="M162.971 186.108C149.04 186.108 137.747 197.401 137.747 211.332V223.439C151.678 223.439 162.971 212.146 162.971 198.215V186.108Z" fill="#34BC85"/>
  <path d="M209.61 181.525V211.894H203.519V192.141L195.383 211.894H190.771L182.591 192.141V211.894H176.5V181.525H183.418L193.077 204.106L202.736 181.525H209.61Z" fill="#0F5156"/>
  <path d="M216.981 184.919C215.908 184.919 215.009 184.585 214.284 183.918C213.587 183.222 213.239 182.366 213.239 181.351C213.239 180.336 213.587 179.495 214.284 178.828C215.009 178.132 215.908 177.783 216.981 177.783C218.054 177.783 218.939 178.132 219.635 178.828C220.36 179.495 220.723 180.336 220.723 181.351C220.723 182.366 220.36 183.222 219.635 183.918C218.939 184.585 218.054 184.919 216.981 184.919ZM219.983 187.79V211.894H213.892V187.79H219.983Z" fill="#0F5156"/>
  <path d="M237.618 187.442C240.49 187.442 242.81 188.356 244.58 190.183C246.349 191.982 247.234 194.505 247.234 197.754V211.894H241.142V198.581C241.142 196.666 240.664 195.201 239.707 194.186C238.749 193.142 237.444 192.62 235.791 192.62C234.108 192.62 232.774 193.142 231.788 194.186C230.831 195.201 230.352 196.666 230.352 198.581V211.894H224.261V187.79H230.352V190.793C231.164 189.748 232.194 188.936 233.441 188.356C234.718 187.747 236.11 187.442 237.618 187.442Z" fill="#0F5156"/>
  <path d="M258.378 192.794V204.454C258.378 205.266 258.566 205.861 258.943 206.238C259.349 206.586 260.016 206.76 260.945 206.76H263.773V211.894H259.944C254.81 211.894 252.243 209.4 252.243 204.411V192.794H247.723V187.79H252.243V181.83H258.378V187.79V192.794Z" fill="#0F5156"/>
  <path d="M286.61 187.79L271.687 223.294H265.204L270.425 211.285L260.766 187.79H267.597L273.818 204.628L280.127 187.79H286.61Z" fill="#0F5156"/>
</svg>