<svg xmlns="http://www.w3.org/2000/svg" width="250" height="250" viewBox="0 0 250 250" fill="none">
  <rect width="250" height="250" rx="125" fill="white"/>
  <rect x="0.5" y="0.5" width="249" height="249" rx="124.5" stroke="black" stroke-opacity="0.1"/>
  <path d="M92.4937 116.86C94.0215 116.86 95.3439 117.115 96.461 117.624C97.5945 118.133 98.4651 118.856 99.0729 119.792C99.6808 120.729 99.9847 121.838 99.9847 123.119C99.9847 124.384 99.6808 125.493 99.0729 126.446C98.4651 127.382 97.5945 128.105 96.461 128.614C95.3439 129.107 94.0215 129.353 92.4937 129.353H89.0193V134.109H85.0273V116.86H92.4937ZM92.2719 126.101C93.4711 126.101 94.3829 125.846 95.0071 125.337C95.6314 124.811 95.9435 124.072 95.9435 123.119C95.9435 122.15 95.6314 121.411 95.0071 120.901C94.3829 120.376 93.4711 120.113 92.2719 120.113H89.0193V126.101H92.2719Z" fill="#180B3D"/>
  <path d="M105.003 122.602C105.463 121.961 106.079 121.476 106.851 121.148C107.64 120.819 108.543 120.655 109.562 120.655V124.203C109.135 124.17 108.847 124.154 108.699 124.154C107.599 124.154 106.736 124.466 106.112 125.09C105.488 125.698 105.176 126.618 105.176 127.85V134.109H101.331V120.852H105.003V122.602Z" fill="#180B3D"/>
  <path d="M116.803 134.306C115.407 134.306 114.15 134.019 113.033 133.444C111.932 132.852 111.07 132.039 110.446 131.004C109.821 129.969 109.509 128.795 109.509 127.481C109.509 126.166 109.821 124.992 110.446 123.957C111.07 122.922 111.932 122.117 113.033 121.542C114.15 120.951 115.407 120.655 116.803 120.655C118.2 120.655 119.448 120.951 120.549 121.542C121.649 122.117 122.512 122.922 123.136 123.957C123.76 124.992 124.072 126.166 124.072 127.481C124.072 128.795 123.76 129.969 123.136 131.004C122.512 132.039 121.649 132.852 120.549 133.444C119.448 134.019 118.2 134.306 116.803 134.306ZM116.803 131.152C117.789 131.152 118.594 130.824 119.218 130.166C119.859 129.493 120.179 128.598 120.179 127.481C120.179 126.363 119.859 125.476 119.218 124.819C118.594 124.146 117.789 123.809 116.803 123.809C115.818 123.809 115.004 124.146 114.364 124.819C113.723 125.476 113.403 126.363 113.403 127.481C113.403 128.598 113.723 129.493 114.364 130.166C115.004 130.824 115.818 131.152 116.803 131.152Z" fill="#180B3D"/>
  <path d="M141.501 116.86V134.109H138.223L129.623 123.636V134.109H125.681V116.86H128.983L137.558 127.333V116.86H141.501Z" fill="#180B3D"/>
  <path d="M149.426 120.655C151.479 120.655 153.056 121.148 154.157 122.133C155.258 123.103 155.808 124.573 155.808 126.544V134.109H152.21V132.458C151.487 133.69 150.14 134.306 148.169 134.306C147.151 134.306 146.263 134.134 145.508 133.789C144.769 133.444 144.202 132.967 143.808 132.36C143.413 131.752 143.216 131.062 143.216 130.29C143.216 129.058 143.676 128.088 144.596 127.382C145.532 126.676 146.97 126.322 148.908 126.322H151.964C151.964 125.485 151.709 124.844 151.2 124.4C150.691 123.94 149.927 123.71 148.908 123.71C148.202 123.71 147.504 123.825 146.814 124.055C146.14 124.269 145.565 124.565 145.089 124.942L143.709 122.257C144.432 121.747 145.294 121.353 146.296 121.074C147.315 120.795 148.358 120.655 149.426 120.655ZM149.13 131.719C149.787 131.719 150.37 131.571 150.88 131.275C151.389 130.963 151.75 130.511 151.964 129.92V128.565H149.327C147.75 128.565 146.962 129.082 146.962 130.117C146.962 130.61 147.151 131.004 147.528 131.3C147.923 131.579 148.457 131.719 149.13 131.719Z" fill="#180B3D"/>
  <path d="M166.605 133.468C166.228 133.748 165.759 133.961 165.201 134.109C164.659 134.241 164.084 134.306 163.476 134.306C161.899 134.306 160.675 133.904 159.804 133.099C158.95 132.294 158.523 131.111 158.523 129.55V124.105H156.478V121.148H158.523V117.92H162.367V121.148H165.669V124.105H162.367V129.501C162.367 130.06 162.507 130.495 162.786 130.807C163.082 131.103 163.492 131.251 164.018 131.251C164.626 131.251 165.143 131.086 165.57 130.758L166.605 133.468Z" fill="#180B3D"/>
  <path d="M180.887 120.852V134.109H177.24V132.532C176.731 133.107 176.123 133.551 175.416 133.863C174.71 134.158 173.946 134.306 173.125 134.306C171.383 134.306 170.004 133.805 168.985 132.803C167.967 131.801 167.457 130.314 167.457 128.343V120.852H171.301V127.776C171.301 129.912 172.197 130.98 173.987 130.98C174.907 130.98 175.646 130.684 176.205 130.093C176.764 129.485 177.043 128.589 177.043 127.407V120.852H180.887Z" fill="#180B3D"/>
  <path d="M186.888 122.602C187.348 121.961 187.964 121.476 188.736 121.148C189.524 120.819 190.428 120.655 191.446 120.655V124.203C191.019 124.17 190.732 124.154 190.584 124.154C189.483 124.154 188.621 124.466 187.996 125.09C187.372 125.698 187.06 126.618 187.06 127.85V134.109H183.216V120.852H186.888V122.602Z" fill="#180B3D"/>
  <path d="M205.366 127.53C205.366 127.579 205.341 127.924 205.292 128.565H195.263C195.443 129.386 195.87 130.035 196.544 130.511C197.218 130.988 198.055 131.226 199.057 131.226C199.747 131.226 200.355 131.127 200.881 130.93C201.423 130.717 201.924 130.388 202.384 129.945L204.429 132.162C203.181 133.592 201.357 134.306 198.959 134.306C197.464 134.306 196.141 134.019 194.992 133.444C193.842 132.852 192.955 132.039 192.33 131.004C191.706 129.969 191.394 128.795 191.394 127.481C191.394 126.183 191.698 125.016 192.306 123.981C192.93 122.93 193.776 122.117 194.844 121.542C195.928 120.951 197.135 120.655 198.466 120.655C199.764 120.655 200.938 120.934 201.99 121.493C203.041 122.051 203.862 122.856 204.454 123.908C205.062 124.942 205.366 126.15 205.366 127.53ZM198.491 123.563C197.62 123.563 196.889 123.809 196.298 124.302C195.706 124.795 195.345 125.468 195.213 126.322H201.743C201.612 125.485 201.25 124.819 200.659 124.326C200.068 123.817 199.345 123.563 198.491 123.563Z" fill="#180B3D"/>
  <path fill-rule="evenodd" clip-rule="evenodd" d="M63.1368 107.254C62.5511 106.915 61.829 106.915 61.2433 107.254C57.0832 109.661 54.2773 114.163 54.2773 119.323C54.2773 120.059 54.3343 120.781 54.4441 121.486C51.5803 120.513 48.4795 120.867 45.9468 122.326C45.3605 122.664 44.9994 123.29 45 123.966C45.003 127.536 46.8574 131.015 50.1784 132.932C51.8077 133.873 53.586 134.32 55.3402 134.321C55.0733 135.077 54.9281 135.891 54.9281 136.738C54.9281 140.749 58.1793 144 62.1898 144C66.2004 144 69.4515 140.749 69.4515 136.738C69.4515 135.889 69.3057 135.074 69.0377 134.316C70.6872 134.264 72.3486 133.816 73.8787 132.932C77.1998 131.015 79.0541 127.536 79.0571 123.966C79.0577 123.29 78.6966 122.664 78.1104 122.326C75.6774 120.925 72.7202 120.543 69.9525 121.377C70.0515 120.707 70.1028 120.021 70.1028 119.323C70.1028 114.163 67.297 109.661 63.1368 107.254ZM58.0589 119.323C58.0589 115.973 59.6814 112.999 62.1901 111.148C64.6988 112.999 66.3213 115.973 66.3213 119.323C66.3213 122.674 64.6988 125.648 62.1901 127.499C59.6814 125.648 58.0589 122.674 58.0589 119.323ZM69.647 125.603C71.3932 124.595 73.4107 124.478 75.1732 125.116C74.8444 126.961 73.734 128.649 71.9879 129.658C70.2418 130.666 68.2242 130.783 66.4618 130.145C66.7906 128.3 67.9009 126.611 69.647 125.603ZM48.884 125.115C50.6464 124.477 52.664 124.595 54.4101 125.603C56.1562 126.611 57.2666 128.3 57.5954 130.145C55.8329 130.783 53.8153 130.666 52.0692 129.657C50.3231 128.649 49.2127 126.961 48.884 125.115ZM58.7096 136.738C58.7096 134.816 60.2678 133.258 62.1898 133.258C64.1119 133.258 65.67 134.816 65.67 136.738C65.67 138.66 64.1119 140.218 62.1898 140.218C60.2678 140.218 58.7096 138.66 58.7096 136.738Z" fill="#22B24B"/>
</svg>