<svg xmlns="http://www.w3.org/2000/svg" width="22" height="22" viewBox="0 0 22 22" fill="none">
    <g clip-path="url(#clip0_740_1991)">
        <path d="M9.44229 15.843V18.9841C9.43822 19.1022 9.38844 19.214 9.30345 19.2961C9.21849 19.3781 9.10495 19.424 8.98683 19.4238H5.68871C5.14643 19.3325 4.65551 19.0479 4.30664 18.6229" stroke="black" stroke-width="1.8" stroke-linecap="round" stroke-linejoin="round"/>
        <path d="M4.30697 18.6385C4.30697 18.6385 2.59509 17.1464 6.56854 13.173H8.34323L5.68904 8.79126H0.804688L2.13964 10.5031C2.13964 10.5031 1.24444 10.6602 1.24444 11.9009C1.71399 14.3587 2.76398 16.6687 4.30697 18.6385Z" stroke="black" stroke-width="1.8" stroke-linecap="round" stroke-linejoin="round"/>
        <path d="M16.2734 10.0164L18.5979 8.44591C18.6498 8.42298 18.706 8.41113 18.7627 8.41113C18.8196 8.41113 18.8757 8.42298 18.9277 8.44591C18.9884 8.45301 19.0467 8.47363 19.0982 8.50624C19.1499 8.53886 19.1936 8.58264 19.2262 8.63437L21.0322 11.3357C21.1402 11.5529 21.1963 11.7921 21.1963 12.0346C21.1963 12.2771 21.1402 12.5163 21.0322 12.7335" stroke="black" stroke-width="1.8" stroke-linecap="round" stroke-linejoin="round"/>
        <path d="M21.0955 12.5764C21.0955 12.5764 20.5929 14.6181 15.3945 14.1469V12.7806L12.3477 16.7697L15.2374 21.2143L15.3945 19.1255C15.3945 19.1255 15.9756 19.8322 16.965 19.1255C18.6244 17.1341 20.0132 14.9319 21.0955 12.5764Z" stroke="black" stroke-width="1.8" stroke-linecap="round" stroke-linejoin="round"/>
        <path d="M6.85167 6.73373L4.73145 5.76C4.62687 5.70597 4.5463 5.61475 4.50562 5.5043C4.46492 5.39384 4.46704 5.27216 4.51158 5.1632L6.30198 1.58239C6.42158 1.37038 6.58885 1.18908 6.79054 1.0528C6.99223 0.916524 7.22284 0.828992 7.46416 0.797119" stroke="black" stroke-width="1.8" stroke-linecap="round" stroke-linejoin="round"/>
        <path d="M7.46289 0.797309C7.46289 0.797309 9.39465 0.797309 11.8447 5.5089L10.5725 7.07944H15.8496L17.7185 2.14796L15.5197 2.8233C15.4878 2.48254 15.3644 2.15672 15.1626 1.88029C14.9608 1.60384 14.6881 1.38704 14.3732 1.25276C13.2907 0.894398 12.1511 0.739966 11.0123 0.797309H7.46289Z" stroke="black" stroke-width="1.8" stroke-linecap="round" stroke-linejoin="round"/>
    </g>
    <defs>
        <clipPath id="clip0_740_1991">
            <rect width="22" height="22" fill="white"/>
        </clipPath>
    </defs>
</svg>