<svg width="16" height="16" viewBox="0 0 16 16" fill="none" xmlns="http://www.w3.org/2000/svg">
<mask id="mask0_846_216" style="mask-type:alpha" maskUnits="userSpaceOnUse" x="0" y="0" width="16" height="16">
<rect width="16" height="16" fill="#D9D9D9"/>
</mask>
<g mask="url(#mask0_846_216)">
<path d="M5.26971 7.3811C5.47208 7.3811 5.64179 7.31265 5.77886 7.17575C5.91594 7.03887 5.98448 6.86924 5.98448 6.66689C5.98448 6.46452 5.91603 6.2948 5.77914 6.15772C5.64225 6.02064 5.47263 5.9521 5.27028 5.9521C5.06791 5.9521 4.89819 6.02055 4.76111 6.15745C4.62403 6.29434 4.55549 6.46396 4.55549 6.66632C4.55549 6.86869 4.62394 7.03841 4.76083 7.17549C4.89773 7.31257 5.06735 7.3811 5.26971 7.3811ZM8.00014 7.3811C8.20251 7.3811 8.37223 7.31265 8.50931 7.17575C8.64639 7.03887 8.71493 6.86924 8.71493 6.66689C8.71493 6.46452 8.64648 6.2948 8.50958 6.15772C8.37269 6.02064 8.20306 5.9521 8.00071 5.9521C7.79834 5.9521 7.62862 6.02055 7.49154 6.15745C7.35447 6.29434 7.28593 6.46396 7.28593 6.66632C7.28593 6.86869 7.35438 7.03841 7.49128 7.17549C7.62816 7.31257 7.79779 7.3811 8.00014 7.3811ZM10.7306 7.3811C10.9329 7.3811 11.1027 7.31265 11.2397 7.17575C11.3768 7.03887 11.4454 6.86924 11.4454 6.66689C11.4454 6.46452 11.3769 6.2948 11.24 6.15772C11.1031 6.02064 10.9335 5.9521 10.7311 5.9521C10.5288 5.9521 10.3591 6.02055 10.222 6.15745C10.0849 6.29434 10.0164 6.46396 10.0164 6.66632C10.0164 6.86869 10.0848 7.03841 10.2217 7.17549C10.3586 7.31257 10.5282 7.3811 10.7306 7.3811ZM1.19824 14.8021V2.71444C1.19824 2.29463 1.34608 1.93689 1.64174 1.64124C1.93739 1.34558 2.29511 1.19775 2.71493 1.19775H13.2859C13.7057 1.19775 14.0635 1.34558 14.3591 1.64124C14.6548 1.93689 14.8026 2.29463 14.8026 2.71444V10.6188C14.8026 11.0386 14.6548 11.3963 14.3591 11.692C14.0635 11.9876 13.7057 12.1355 13.2859 12.1355H3.86491L1.19824 14.8021ZM3.29824 10.6188H13.2859V2.71444H2.71493V11.1894L3.29824 10.6188Z" fill="#2B420E"/>
</g>
</svg>
