<svg xmlns="http://www.w3.org/2000/svg" width="250" height="250" viewBox="0 0 250 250" fill="none">
  <rect width="250" height="250" rx="125" fill="white"/>
  <rect x="0.5" y="0.5" width="249" height="249" rx="124.5" stroke="black" stroke-opacity="0.1"/>
  <path d="M106.205 115.857V112.15H124.86V115.857H117.659V137.805H113.48V115.857H106.205Z" fill="black"/>
  <path d="M136.286 134.434L137.331 134.321L137.406 137.355C134.57 137.929 132.058 138.216 129.869 138.216C127.108 138.216 125.118 137.455 123.9 135.932C122.706 134.409 122.109 131.974 122.109 128.629C122.109 121.987 124.808 118.666 130.205 118.666C135.428 118.666 138.04 121.525 138.04 127.243L137.779 130.164H126.213C126.238 131.712 126.574 132.848 127.22 133.572C127.867 134.296 129.073 134.659 130.839 134.659C132.605 134.659 134.421 134.584 136.286 134.434ZM134.048 127.018C134.048 125.171 133.749 123.885 133.152 123.161C132.58 122.412 131.598 122.037 130.205 122.037C128.812 122.037 127.792 122.424 127.146 123.198C126.524 123.972 126.2 125.245 126.176 127.018H134.048Z" fill="black"/>
  <path d="M140.085 137.805V119.078H144.115V121.325C146.229 119.952 148.343 119.066 150.457 118.666V122.749C148.318 123.173 146.49 123.722 144.973 124.397L144.152 124.734V137.805H140.085Z" fill="black"/>
  <path d="M151.701 137.805V119.078H155.73V121.325C157.844 119.952 159.958 119.066 162.073 118.666V122.749C159.934 123.173 158.105 123.722 156.588 124.397L155.767 124.734V137.805H151.701Z" fill="black"/>
  <path d="M177.121 124.846V133.385C177.146 133.934 177.282 134.346 177.531 134.621C177.805 134.871 178.215 135.033 178.762 135.108L178.65 138.216C176.511 138.216 174.857 137.755 173.688 136.831C171.698 137.755 169.696 138.216 167.681 138.216C163.975 138.216 162.122 136.232 162.122 132.262C162.122 130.364 162.62 128.991 163.615 128.142C164.634 127.293 166.189 126.781 168.278 126.606L173.091 126.194V124.846C173.091 123.847 172.867 123.148 172.42 122.749C171.997 122.349 171.363 122.149 170.517 122.149C168.925 122.149 166.935 122.249 164.547 122.449L163.353 122.524L163.204 119.64C165.915 118.991 168.403 118.666 170.666 118.666C172.954 118.666 174.596 119.166 175.591 120.164C176.611 121.138 177.121 122.699 177.121 124.846ZM168.763 129.49C167.047 129.64 166.189 130.576 166.189 132.299C166.189 134.022 166.948 134.883 168.465 134.883C169.708 134.883 171.027 134.683 172.42 134.284L173.091 134.059V129.078L168.763 129.49Z" fill="black"/>
  <path fill-rule="evenodd" clip-rule="evenodd" d="M94.917 110C98.1636 110 100.872 112.303 101.499 115.364C101.588 115.802 101.635 116.254 101.635 116.718V133.917C101.635 137.627 98.6274 140.635 94.917 140.635H77.7183C76.9837 140.635 76.2767 140.517 75.6151 140.299C72.9348 139.417 71 136.893 71 133.917V116.718C71 113.008 74.0079 110 77.7183 110H94.917ZM92.1921 112.15H94.917C97.1435 112.15 98.998 113.743 99.4032 115.851C98.1101 115.997 96.6322 115.862 95.0716 115.193C93.6885 114.6 92.7711 113.502 92.1921 112.15ZM85.8133 112.15H89.8966C90.575 114.192 91.8747 116.162 94.2247 117.169C96.1098 117.977 97.9002 118.164 99.4854 118.007V120.203C97.3331 120.885 95.1883 121.16 93.4721 120.658C92.6198 120.409 91.6417 119.746 90.5892 118.704C89.551 117.676 88.5151 116.355 87.5369 114.91C86.929 114.012 86.3501 113.076 85.8133 112.15ZM83.3442 112.15H80.4994C80.6291 114.583 80.0559 117.554 77.9236 120.564C76.5109 122.559 74.8404 123.656 73.1498 124.146V128.431C74.1685 127.813 75.3677 126.968 76.7718 125.827C80.0892 123.132 82.7021 122.059 84.6834 121.863C86.6533 121.668 88.0535 122.351 88.6704 123.215C89.318 124.121 89.684 125.336 89.8218 126.618C89.9613 127.915 89.8763 129.361 89.5492 130.797C88.8989 133.651 87.2482 136.621 84.2744 138.223C84.1124 138.31 83.949 138.397 83.7843 138.485H87.1259C88.4329 136.826 89.4786 135.178 89.8537 133.886C90.277 132.428 90.4508 130.882 90.6133 129.436L90.6134 129.436L90.6134 129.436C90.6718 128.917 90.7287 128.41 90.7952 127.926C90.9104 127.086 91.0694 126.197 91.4111 125.555C91.5919 125.216 91.8791 124.838 92.3415 124.62C92.8282 124.39 93.3346 124.419 93.7788 124.567C95.0241 124.982 96.6795 125.068 99.4854 124.365V122.447C97.3217 123.057 94.9623 123.334 92.8683 122.721C91.517 122.326 90.2344 121.378 89.0766 120.232C87.9045 119.072 86.7805 117.627 85.7567 116.115C84.8809 114.821 84.0657 113.459 83.3442 112.15ZM99.4854 126.576C96.8123 127.188 94.8901 127.162 93.2643 126.659C93.1442 126.941 93.032 127.439 92.9251 128.218C92.872 128.605 92.8227 129.045 92.7693 129.521L92.7693 129.521C92.6031 131.003 92.3981 132.833 91.9183 134.485C91.5505 135.752 90.7552 137.144 89.8096 138.485H91.9726C92.3715 137.493 92.7389 136.548 93.0275 135.754C93.3375 134.901 93.5318 134.287 93.5942 133.975C93.7129 133.382 93.9389 132.744 94.469 132.291C95.0203 131.82 95.6976 131.719 96.3321 131.752C96.9568 131.783 97.6894 131.952 98.5158 132.189C98.8163 132.275 99.1393 132.373 99.4854 132.482V126.576ZM99.4155 134.718C98.8543 134.535 98.3606 134.381 97.9231 134.255C97.1246 134.026 96.5891 133.917 96.2229 133.899C95.9864 133.887 95.8907 133.916 95.8633 133.928C95.8479 133.946 95.7716 134.05 95.7023 134.396C95.6036 134.89 95.3533 135.648 95.0481 136.488C94.829 137.092 94.5686 137.771 94.2868 138.485H94.917C97.1669 138.485 99.037 136.859 99.4155 134.718ZM79.1457 138.485C80.5536 137.759 81.9746 137.019 83.2551 136.33C85.5215 135.109 86.894 132.773 87.4531 130.319C87.7306 129.101 87.7968 127.894 87.6843 126.848C87.5701 125.786 87.2812 124.969 86.921 124.464C86.8661 124.388 86.318 123.862 84.8952 124.002C83.4837 124.142 81.2595 124.951 78.1274 127.496C76.1668 129.089 74.526 130.18 73.1498 130.902V133.326C73.4891 133.016 73.8722 132.756 74.2262 132.535C74.5869 132.31 74.9799 132.088 75.3661 131.871L75.4618 131.818C75.8226 131.616 76.1806 131.415 76.5362 131.202C77.3141 130.736 78.0135 130.249 78.5513 129.683C79.4825 128.703 80.8264 127.533 82.09 126.734C82.7134 126.34 83.3865 125.992 84.0217 125.832C84.6178 125.682 85.5421 125.62 86.1862 126.357C86.799 127.057 87.0531 128.108 86.6066 129.472C86.1826 130.767 85.1176 132.403 83.0591 134.53C80.9224 136.738 78.7856 137.844 76.984 138.197C76.7809 138.236 76.581 138.267 76.3851 138.288C76.8069 138.416 77.2545 138.485 77.7183 138.485H79.1457ZM73.1498 121.871C74.1914 121.439 75.2291 120.649 76.1693 119.322C78.0257 116.701 78.4743 114.159 78.3466 112.15H77.7183C75.1952 112.15 73.1498 114.195 73.1498 116.718V121.871ZM95.8612 133.929C95.8561 133.931 95.8541 133.933 95.8543 133.933C95.8545 133.933 95.8556 133.933 95.8576 133.932L95.8589 133.931L95.8612 133.929ZM83.2387 128.552C82.1561 129.236 80.947 130.283 80.11 131.164C79.3715 131.941 78.4754 132.546 77.6409 133.046C77.2574 133.276 76.8728 133.491 76.5163 133.691L76.4176 133.747C76.027 133.966 75.6767 134.164 75.3655 134.358C74.6946 134.778 74.414 135.06 74.3261 135.24C74.3009 135.292 74.2979 135.321 74.3057 135.367C74.3167 135.431 74.363 135.58 74.5471 135.825L74.565 135.849L74.5816 135.874C74.5826 135.875 74.6068 135.908 74.6837 135.956C74.7632 136.004 74.8862 136.059 75.0609 136.102C75.412 136.189 75.9231 136.214 76.5713 136.087C77.8602 135.835 79.62 134.992 81.5143 133.035C83.4868 130.997 84.289 129.642 84.5634 128.803C84.7268 128.304 84.6934 128.034 84.6412 127.896C84.615 127.9 84.5837 127.907 84.5469 127.916C84.2365 127.995 83.7884 128.204 83.2387 128.552ZM84.7568 127.885C84.7563 127.886 84.7499 127.886 84.739 127.884C84.7518 127.884 84.7573 127.885 84.7568 127.885Z" fill="#56704E"/>
</svg>